<svg width="201" height="200" viewBox="0 0 201 200" fill="none" xmlns="http://www.w3.org/2000/svg">
<path d="M179.737 165.893H124.045V113.703H179.737V165.893ZM78.0705 165.893H22.3785V113.703H78.0705V165.893ZM15.103 97.0508V188.894H86.27V113.703H115.846V188.894H187.013V97.0508H15.103Z" fill="black"/>
<path d="M2.1709 97.3914C2.1709 103.841 7.06994 109.072 13.1105 109.072C19.154 109.072 24.0518 103.841 24.0518 97.3914H2.1709Z" fill="white"/>
<path d="M3.22404 98.4627C3.72797 103.811 7.96918 108 13.1098 108C18.2514 108 22.4941 103.811 22.9977 98.4627H3.22404ZM13.1098 110.143C6.52451 110.143 1.16699 104.424 1.16699 97.3915C1.16699 96.7992 1.61644 96.3204 2.17023 96.3204H24.0511C24.6059 96.3204 25.0544 96.7992 25.0544 97.3915C25.0544 104.424 19.6961 110.143 13.1098 110.143Z" fill="black"/>
<path d="M24.0513 97.3914C24.0513 103.841 28.9481 109.072 34.9916 109.072C41.0342 109.072 45.93 103.841 45.93 97.3914H24.0513Z" fill="white"/>
<path d="M25.1055 98.4627C25.6091 103.811 29.8508 108 34.9915 108C40.1311 108 44.3718 103.811 44.8764 98.4627H25.1055ZM34.9915 110.143C28.4062 110.143 23.0479 104.424 23.0479 97.3915C23.0479 96.7992 23.4973 96.3204 24.0511 96.3204H45.9298C46.4836 96.3204 46.933 96.7992 46.933 97.3915C46.933 104.424 41.5757 110.143 34.9915 110.143Z" fill="black"/>
<path d="M67.811 97.3914C67.811 103.841 72.7069 109.072 78.7484 109.072C84.7909 109.072 89.6907 103.841 89.6907 97.3914H67.811Z" fill="white"/>
<path d="M68.8643 98.4627C69.3679 103.811 73.6086 108 78.7482 108C83.8898 108 88.1325 103.811 88.6372 98.4627H68.8643ZM78.7482 110.143C72.1639 110.143 66.8076 104.424 66.8076 97.3915C66.8076 96.7992 67.2561 96.3204 67.8109 96.3204H89.6906C90.2444 96.3204 90.6938 96.7992 90.6938 97.3915C90.6938 104.424 85.3345 110.143 78.7482 110.143Z" fill="black"/>
<path d="M89.6899 97.3914C89.6899 103.841 94.5848 109.072 100.627 109.072C106.669 109.072 111.569 103.841 111.569 97.3914H89.6899Z" fill="white"/>
<path d="M90.7437 98.4627C91.2483 103.811 95.488 108 100.628 108C105.769 108 110.011 103.811 110.516 98.4627H90.7437ZM100.628 110.143C94.0433 110.143 88.687 104.424 88.687 97.3915C88.687 96.7992 89.1365 96.3204 89.6903 96.3204H111.569C112.124 96.3204 112.572 96.7992 112.572 97.3915C112.572 104.424 107.214 110.143 100.628 110.143Z" fill="black"/>
<path d="M45.9302 97.3914C45.9302 103.841 50.828 109.072 56.8705 109.072C62.9131 109.072 67.8109 103.841 67.8109 97.3914H45.9302Z" fill="white"/>
<path d="M46.9839 98.4627C47.4885 103.811 51.7302 108 56.8708 108C62.0115 108 66.2532 103.811 66.7568 98.4627H46.9839ZM56.8708 110.143C50.2856 110.143 44.9272 104.424 44.9272 97.3915C44.9272 96.7992 45.3767 96.3204 45.9305 96.3204H67.8112C68.365 96.3204 68.8144 96.7992 68.8144 97.3915C68.8144 104.424 63.4561 110.143 56.8708 110.143Z" fill="black"/>
<path d="M51.1047 46.9712L45.93 97.3915H24.0513L33.6061 46.9712H51.1047Z" fill="white"/>
<path d="M25.2781 96.32H45.0309L49.9859 48.0421H34.4267L25.2781 96.32ZM45.9298 98.4624H24.0511C23.7512 98.4624 23.4652 98.3178 23.2756 98.0693C23.085 97.8218 23.0088 97.4941 23.068 97.1791L32.6228 46.7589C32.7171 46.2586 33.1285 45.8998 33.606 45.8998H51.1046C51.3905 45.8998 51.6614 46.0294 51.852 46.2554C52.0416 46.4825 52.1329 46.7856 52.1018 47.0877L46.9271 97.508C46.8719 98.0511 46.4415 98.4624 45.9298 98.4624Z" fill="black"/>
<path d="M68.8258 96.32H88.7401L90.1838 48.0421H71.382L68.8258 96.32ZM89.6902 98.4624H67.8105C67.5426 98.4624 67.2848 98.3478 67.0962 98.1443C66.9076 97.9407 66.8032 97.6644 66.8072 97.3784L69.3876 46.9581C69.3946 46.3711 69.842 45.8998 70.3908 45.8998H91.2432C91.5181 45.8998 91.7819 46.0208 91.9716 46.234C92.1612 46.4471 92.2595 46.7353 92.2454 47.0288L90.6924 97.4491C90.6633 98.0179 90.2229 98.4624 89.6902 98.4624Z" fill="black"/>
<path d="M47.0501 96.32H66.8551L69.0492 48.0421H52.0051L47.0501 96.32ZM67.8112 98.4624H45.9304C45.6455 98.4624 45.3736 98.3328 45.183 98.1068C44.9934 97.8797 44.9021 97.5776 44.9332 97.2745L50.1079 46.8542C50.1641 46.3111 50.5935 45.8998 51.1052 45.8998H70.1026C70.3764 45.8998 70.6393 46.0197 70.8289 46.2318C71.0175 46.4439 71.1178 46.7299 71.1048 47.0224L68.8134 97.4437C68.7873 98.0136 68.3459 98.4624 67.8112 98.4624Z" fill="black"/>
<path d="M3.20621 96.32H23.2313L32.3789 48.0421H16.1153L3.20621 96.32ZM24.051 98.4624H1.87611C1.56139 98.4624 1.26474 98.3049 1.07553 98.0371C0.885813 97.7683 0.825118 97.4201 0.911697 97.0977L14.3938 46.6764C14.5172 46.2168 14.9104 45.8998 15.3579 45.8998H33.6059C33.9068 45.8998 34.1917 46.0444 34.3824 46.2918C34.573 46.5414 34.6482 46.8681 34.589 47.183L25.0342 97.6033C24.9398 98.1036 24.5295 98.4624 24.051 98.4624Z" fill="black"/>
<path d="M199.574 97.3914C199.574 103.841 194.678 109.072 188.633 109.072C182.59 109.072 177.694 103.841 177.694 97.3914H199.574Z" fill="white"/>
<path d="M178.748 98.4627C179.253 103.811 183.493 108 188.633 108C193.774 108 198.016 103.811 198.521 98.4627H178.748ZM188.633 110.143C182.049 110.143 176.691 104.424 176.691 97.3915C176.691 96.7992 177.14 96.3204 177.695 96.3204H199.574C200.128 96.3204 200.578 96.7992 200.578 97.3915C200.578 104.424 195.219 110.143 188.633 110.143Z" fill="black"/>
<path d="M177.695 97.3914C177.695 103.841 172.796 109.072 166.754 109.072C160.711 109.072 155.816 103.841 155.816 97.3914H177.695Z" fill="white"/>
<path d="M156.87 98.4627C157.374 103.811 161.615 108 166.755 108C171.895 108 176.137 103.811 176.642 98.4627H156.87ZM166.755 110.143C160.17 110.143 154.813 104.424 154.813 97.3915C154.813 96.7992 155.262 96.3204 155.816 96.3204H177.695C178.25 96.3204 178.698 96.7992 178.698 97.3915C178.698 104.424 173.34 110.143 166.755 110.143Z" fill="black"/>
<path d="M133.937 97.3914C133.937 103.841 129.038 109.072 122.995 109.072C116.952 109.072 112.057 103.841 112.057 97.3914H133.937Z" fill="white"/>
<path d="M113.11 98.4627C113.615 103.811 117.856 108 122.995 108C128.137 108 132.38 103.811 132.884 98.4627H113.11ZM122.995 110.143C116.411 110.143 111.054 104.424 111.054 97.3915C111.054 96.7992 111.502 96.3204 112.057 96.3204H133.938C134.491 96.3204 134.941 96.7992 134.941 97.3915C134.941 104.424 129.583 110.143 122.995 110.143Z" fill="black"/>
<path d="M155.816 97.3914C155.816 103.841 150.916 109.072 144.874 109.072C138.832 109.072 133.938 103.841 133.938 97.3914H155.816Z" fill="white"/>
<path d="M134.99 98.4627C135.495 103.811 139.736 108 144.874 108C150.016 108 154.259 103.811 154.763 98.4627H134.99ZM144.874 110.143C138.291 110.143 132.935 104.424 132.935 97.3915C132.935 96.7992 133.383 96.3204 133.938 96.3204H155.817C156.371 96.3204 156.82 96.7992 156.82 97.3915C156.82 104.424 151.46 110.143 144.874 110.143Z" fill="black"/>
<path d="M150.639 46.9712L155.816 97.3915H177.695L168.141 46.9712H150.639Z" fill="white"/>
<path d="M156.716 96.32H176.467L167.32 48.0421H151.757L156.716 96.32ZM177.694 98.4624H155.816C155.305 98.4624 154.875 98.0511 154.818 97.508L149.641 47.0877C149.61 46.7856 149.701 46.4825 149.891 46.2554C150.081 46.0294 150.353 45.8998 150.638 45.8998H168.141C168.618 45.8998 169.029 46.2586 169.125 46.7589L178.678 97.1791C178.738 97.4941 178.662 97.8218 178.471 98.0693C178.28 98.3178 177.995 98.4624 177.694 98.4624Z" fill="black"/>
<path d="M113.007 96.32H132.921L130.366 48.0421H111.563L113.007 96.32ZM133.937 98.4624H112.057C111.524 98.4624 111.083 98.0179 111.054 97.4491L109.501 47.0288C109.487 46.7353 109.586 46.4471 109.776 46.234C109.965 46.0208 110.229 45.8998 110.504 45.8998H131.357C131.907 45.8998 132.354 46.3711 132.36 46.9581L134.941 97.3784C134.944 97.6644 134.839 97.9407 134.651 98.1443C134.462 98.3478 134.205 98.4624 133.937 98.4624Z" fill="black"/>
<path d="M134.893 96.32H154.697L149.739 48.0421H132.698L134.893 96.32ZM155.816 98.4624H133.937C133.401 98.4624 132.961 98.0136 132.935 97.4437L130.643 47.0224C130.631 46.7299 130.729 46.4439 130.919 46.2318C131.108 46.0197 131.371 45.8998 131.646 45.8998H150.638C151.15 45.8998 151.58 46.3111 151.635 46.8542L156.813 97.2745C156.845 97.5776 156.754 97.8797 156.563 98.1057C156.373 98.3328 156.101 98.4624 155.816 98.4624Z" fill="black"/>
<path d="M178.515 96.32H198.54L185.629 48.0421H169.368L178.515 96.32ZM199.869 98.4624H177.695C177.217 98.4624 176.806 98.1036 176.712 97.6033L167.158 47.183C167.098 46.8681 167.175 46.5414 167.364 46.2918C167.555 46.0444 167.841 45.8998 168.141 45.8998H186.387C186.834 45.8998 187.229 46.2168 187.352 46.6764L200.835 97.0977C200.921 97.4201 200.861 97.7683 200.67 98.0371C200.481 98.3049 200.184 98.4624 199.869 98.4624Z" fill="black"/>
<path d="M91.0473 46.9712H110.207L111.569 97.3915H89.6899L91.0473 46.9712Z" fill="white"/>
<path d="M90.723 96.32H110.536L109.234 48.0421H92.0222L90.723 96.32ZM111.588 98.4624C111.582 98.4613 111.575 98.4613 111.569 98.4624H89.6907C89.4198 98.4624 89.1599 98.3456 88.9713 98.1378C88.7827 97.93 88.6804 97.6494 88.6884 97.3612L90.0448 46.9399C90.0609 46.3604 90.5053 45.8998 91.0481 45.8998H110.208C110.751 45.8998 111.196 46.3604 111.211 46.9399L112.567 97.147C112.584 97.2252 112.592 97.3077 112.592 97.3912C112.592 97.9836 112.143 98.4624 111.588 98.4624Z" fill="black"/>
<path d="M59.0197 46.8157H57.0132V35.6776H59.0197V46.8157Z" fill="black"/>
<path d="M137.923 46.8157H135.917V35.6776H137.923V46.8157Z" fill="black"/>
<path d="M8.94398 197.858H192.803V189.965H8.94398V197.858ZM193.806 200H7.94074C7.38695 200 6.9375 199.522 6.9375 198.929V188.893C6.9375 188.301 7.38695 187.822 7.94074 187.822H193.806C194.361 187.822 194.81 188.301 194.81 188.893V198.929C194.81 199.522 194.361 200 193.806 200Z" fill="black"/>
<path d="M109.5 149.994C108.954 149.994 108.511 150.468 108.511 151.05C108.511 151.632 108.954 152.105 109.5 152.105C110.045 152.105 110.488 151.632 110.488 151.05C110.488 150.468 110.045 149.994 109.5 149.994ZM109.5 154.247C107.849 154.247 106.504 152.813 106.504 151.05C106.504 149.286 107.849 147.851 109.5 147.851C111.151 147.851 112.495 149.286 112.495 151.05C112.495 152.813 111.151 154.247 109.5 154.247Z" fill="black"/>
<path d="M34.1636 155.826H65.4116V143.364H34.1636V155.826ZM65.6433 157.16H33.9308C33.37 157.16 32.9146 156.674 32.9146 156.075V143.117C32.9146 142.518 33.37 142.032 33.9308 142.032H65.6433C66.2041 142.032 66.6596 142.518 66.6596 143.117V156.075C66.6596 156.674 66.2041 157.16 65.6433 157.16Z" fill="black"/>
<path d="M53.9164 143.162C53.6866 143.162 53.4669 143.033 53.3576 142.808L49.787 135.479L46.2175 142.808C46.063 143.123 45.6888 143.253 45.3798 143.094C45.0708 142.937 44.9464 142.551 45.0999 142.234L49.2292 133.76C49.4409 133.326 50.1341 133.326 50.3458 133.76L54.4742 142.234C54.6287 142.551 54.5033 142.937 54.1953 143.094C54.106 143.14 54.0097 143.162 53.9164 143.162Z" fill="black"/>
<path d="M51.8515 134.072C51.8515 135.29 50.9285 136.276 49.7878 136.276C48.6481 136.276 47.7231 135.29 47.7231 134.072C47.7231 132.855 48.6481 131.867 49.7878 131.867C50.9285 131.867 51.8515 132.855 51.8515 134.072Z" fill="black"/>
<path d="M152.675 128.004C147.145 128.004 142.643 132.81 142.643 138.715C142.643 144.622 147.145 149.427 152.675 149.427C158.208 149.427 162.709 144.622 162.709 138.715C162.709 132.81 158.208 128.004 152.675 128.004ZM152.675 151.034C146.315 151.034 141.138 145.507 141.138 138.715C141.138 131.923 146.315 126.398 152.675 126.398C159.038 126.398 164.214 131.923 164.214 138.715C164.214 145.507 159.038 151.034 152.675 151.034Z" fill="black"/>
<path d="M152.677 126.13C146.287 126.13 141.108 131.359 141.108 137.809C141.108 137.848 141.114 137.885 141.114 137.923C142.8 138.808 144.71 139.319 146.741 139.319C151.321 139.319 155.305 136.764 157.391 132.993C158.975 136.623 161.396 139.036 164.141 139.292C164.202 138.804 164.245 138.311 164.245 137.809C164.245 131.359 159.065 126.13 152.677 126.13Z" fill="black"/>
<path d="M149.787 140.341C149.787 141.532 149.251 142.494 148.589 142.494C147.925 142.494 147.389 141.532 147.389 140.341C147.389 139.152 147.925 138.188 148.589 138.188C149.251 138.188 149.787 139.152 149.787 140.341Z" fill="black"/>
<path d="M157.964 140.341C157.964 141.532 157.427 142.494 156.765 142.494C156.102 142.494 155.565 141.532 155.565 140.341C155.565 139.152 156.102 138.188 156.765 138.188C157.427 138.188 157.964 139.152 157.964 140.341Z" fill="black"/>
<path d="M157.964 123.704C157.964 125.84 155.597 127.571 152.676 127.571C149.755 127.571 147.389 125.84 147.389 123.704C147.389 121.568 149.755 119.836 152.676 119.836C155.597 119.836 157.964 121.568 157.964 123.704Z" fill="black"/>
<path d="M154.468 140.877C154.697 142.005 155.639 142.852 156.765 142.852C157.889 142.852 158.831 142.005 159.061 140.877H154.468ZM156.765 143.923C154.915 143.923 153.41 142.317 153.41 140.341C153.41 140.046 153.634 139.806 153.912 139.806H159.616C159.894 139.806 160.118 140.046 160.118 140.341C160.118 142.317 158.613 143.923 156.765 143.923Z" fill="black"/>
<path d="M146.29 140.877C146.521 142.005 147.464 142.852 148.588 142.852C149.712 142.852 150.655 142.005 150.885 140.877H146.29ZM148.588 143.923C146.737 143.923 145.232 142.317 145.232 140.341C145.232 140.046 145.457 139.806 145.734 139.806H151.44C151.717 139.806 151.942 140.046 151.942 140.341C151.942 142.317 150.437 143.923 148.588 143.923Z" fill="black"/>
<path d="M152.676 147.751C151.007 147.751 149.323 147.277 149.323 146.222C149.323 145.927 149.547 145.687 149.825 145.687C150.081 145.687 150.292 145.891 150.322 146.157C150.487 146.345 151.319 146.68 152.676 146.68C154.087 146.68 154.929 146.321 155.048 146.136C155.048 145.842 155.262 145.644 155.539 145.644C155.816 145.644 156.031 145.927 156.031 146.222C156.031 147.277 154.345 147.751 152.676 147.751Z" fill="black"/>
<path d="M153.912 141.727H151.441C151.164 141.727 150.939 141.487 150.939 141.192C150.939 140.895 151.164 140.656 151.441 140.656H153.912C154.188 140.656 154.413 140.895 154.413 141.192C154.413 141.487 154.188 141.727 153.912 141.727Z" fill="black"/>
<path d="M161.366 159.67H155.565V156.931H161.366V159.67ZM152.676 151.302C144.061 151.302 137.076 163.562 137.076 166.793H168.277C168.277 163.562 161.292 151.302 152.676 151.302Z" fill="black"/>
<path d="M65.6066 26.263C65.6066 24.9423 65.2384 23.8647 64.502 23.0313C63.7646 22.199 62.8447 21.4588 61.7401 20.814C60.6355 20.1702 59.4346 19.5639 58.1395 18.9983C56.8423 18.4316 55.6434 17.7482 54.5388 16.9459C53.4343 16.1436 52.5133 15.1528 51.7769 13.9734C51.0405 12.7941 50.6723 11.2933 50.6723 9.46911C50.6723 6.88972 51.512 4.84484 53.1905 3.33555C54.8699 1.82627 57.2556 1.0711 60.3486 1.0711C62.1454 1.0711 63.7797 1.21249 65.2535 1.49528C66.7262 1.77807 67.8749 2.14012 68.6996 2.58037L67.595 6.07134C66.9168 5.71464 65.9226 5.374 64.6124 5.04944C63.3011 4.72487 61.8214 4.56205 60.172 4.56205C58.2277 4.56205 56.77 5.02696 55.7969 5.95353C54.8258 6.88224 54.3392 7.97483 54.3392 9.23239C54.3392 10.4589 54.7074 11.4808 55.4448 12.2992C56.1801 13.1176 57.1011 13.8481 58.2057 14.4929C59.3102 15.1378 60.5101 15.7741 61.8063 16.4039C63.1025 17.0327 64.3034 17.7643 65.4079 18.5966C66.5125 19.4311 67.4325 20.4294 68.1699 21.5927C68.9053 22.7571 69.2744 24.2031 69.2744 25.9331C69.2744 27.3481 69.0377 28.6218 68.5672 29.754C68.0956 30.8862 67.4024 31.8621 66.4904 32.6794C65.5775 33.4978 64.4719 34.1265 63.1757 34.5668C61.8795 35.006 60.4068 35.2266 58.7585 35.2266C56.5493 35.2266 54.7224 35.0456 53.2787 34.6846C51.8351 34.3236 50.7165 33.922 49.9209 33.4817L51.1579 29.9897C51.8351 30.3881 52.8373 30.7791 54.1626 31.1615C55.4879 31.545 56.9757 31.7357 58.625 31.7357C59.5972 31.7357 60.5101 31.6339 61.3649 31.4293C62.2186 31.2247 62.955 30.8948 63.574 30.4385C64.193 29.9821 64.6856 29.408 65.0548 28.716C65.422 28.0251 65.6066 27.2067 65.6066 26.263Z" fill="black"/>
<path d="M51.1952 32.9131C51.8232 33.1702 52.5967 33.4133 53.5076 33.6415C54.87 33.9821 56.6368 34.1556 58.7586 34.1556C60.2956 34.1556 61.68 33.95 62.8729 33.5461C64.0377 33.1498 65.0379 32.5821 65.8455 31.859C66.6361 31.1499 67.244 30.2962 67.6493 29.3193C68.0627 28.3295 68.2714 27.1908 68.2714 25.9333C68.2714 24.4304 67.9573 23.1718 67.3373 22.1927C66.6732 21.1419 65.8285 20.2271 64.8282 19.472C63.7808 18.6814 62.6241 17.9766 61.3911 17.3789C60.0789 16.7426 58.8449 16.087 57.7243 15.4325C56.5334 14.7384 55.5232 13.934 54.7206 13.0406C53.8026 12.0219 53.3361 10.7408 53.3361 9.23256C53.3361 7.66222 53.94 6.29111 55.1289 5.15566C56.2866 4.05128 57.9841 3.49105 60.1722 3.49105C61.8867 3.49105 63.4568 3.66459 64.8393 4.00629C65.677 4.21303 66.3883 4.42619 66.9862 4.649L67.4497 3.18256C66.8056 2.94155 66.011 2.72947 65.076 2.55058C63.6665 2.27957 62.0763 2.14245 60.3488 2.14245C57.5136 2.14245 55.3225 2.81944 53.8367 4.1552C52.383 5.4631 51.6757 7.20054 51.6757 9.46929C51.6757 11.0696 51.9907 12.385 52.6117 13.3791C53.2719 14.4385 54.1106 15.3393 55.1028 16.0602C56.1462 16.8176 57.2959 17.472 58.5188 18.0066C59.8441 18.585 61.0891 19.2138 62.2218 19.8747C63.4116 20.5688 64.4239 21.384 65.2315 22.2966C66.1465 23.3325 66.61 24.6661 66.61 26.2632C66.61 27.3901 66.3802 28.3938 65.9268 29.2454C65.4833 30.0777 64.8834 30.7761 64.144 31.3202C63.4227 31.8526 62.5609 32.2414 61.5837 32.475C60.6638 32.6956 59.6675 32.807 58.6252 32.807C56.8936 32.807 55.3034 32.6014 53.9009 32.1954C53.0451 31.9479 52.3218 31.6994 51.7158 31.4434L51.1952 32.9131ZM58.7586 36.298C56.4833 36.298 54.562 36.1063 53.0502 35.7271C51.5122 35.3425 50.3384 34.9194 49.4586 34.432L48.667 33.9939L50.6293 28.4559L51.6426 29.0515C52.2466 29.4071 53.1826 29.7692 54.4246 30.128C55.6576 30.4847 57.0712 30.6647 58.6252 30.6647C59.5201 30.6647 60.3678 30.5704 61.1453 30.384C61.8697 30.2105 62.4947 29.9331 63.0043 29.5571C63.5009 29.1918 63.8852 28.743 64.1821 28.187C64.462 27.6622 64.6035 27.0152 64.6035 26.2632C64.6035 25.2167 64.3316 24.3993 63.7718 23.7663C63.1107 23.0186 62.2649 22.3416 61.2587 21.7546C60.1922 21.1323 59.0154 20.5388 57.7594 19.9893C56.407 19.3991 55.1329 18.6728 53.9751 17.832C52.7672 16.9558 51.747 15.8578 50.9424 14.5681C50.0966 13.2152 49.6692 11.5002 49.6692 9.46929C49.6692 6.57069 50.6364 4.23125 52.5445 2.51629C54.4015 0.846329 57.028 9.91821e-05 60.3488 9.91821e-05C62.1947 9.91821e-05 63.9052 0.147911 65.4312 0.44141C67.0123 0.745625 68.2282 1.13232 69.1482 1.62292L69.9297 2.0407L68.179 7.57224L67.1517 7.03236C66.5438 6.71315 65.6138 6.39715 64.3868 6.09294C63.1528 5.78765 61.7342 5.6334 60.1722 5.6334C58.4917 5.6334 57.2447 6.01048 56.4652 6.7528C55.7108 7.4737 55.3426 8.28564 55.3426 9.23256C55.3426 10.1806 55.6124 10.9411 56.1672 11.5559C56.8284 12.2918 57.6761 12.9635 58.6864 13.5526C59.7649 14.1825 60.9537 14.8134 62.2218 15.4283C63.5691 16.0827 64.8352 16.854 65.987 17.7227C67.1848 18.6268 68.1991 19.7269 69.0007 20.993C69.8474 22.3341 70.2778 23.9955 70.2778 25.9333C70.2778 27.4918 70.01 28.924 69.4833 30.1891C68.9525 31.4659 68.162 32.5799 67.1347 33.5001C66.1264 34.4041 64.8964 35.1068 63.4809 35.5878C62.0914 36.0591 60.5022 36.298 58.7586 36.298Z" fill="black"/>
<path d="M93.6193 19.5166H78.7733V34.6609H75.1064V1.63657H78.7733V16.0257H93.6193V1.63657H97.2861V34.6609H93.6193V19.5166Z" fill="black"/>
<path d="M94.6223 33.5899H96.2827V2.70792H94.6223V17.097H77.7699V2.70792H76.1095V33.5899H77.7699V18.4456H94.6223V33.5899ZM98.2892 35.7323H92.6159V20.588H79.7764V35.7323H74.103V0.565567H79.7764V14.9547H92.6159V0.565567H98.2892V35.7323Z" fill="black"/>
<path d="M107.404 18.1489C107.404 19.9731 107.573 21.703 107.912 23.3387C108.25 24.9744 108.774 26.413 109.481 27.6556C110.189 28.8981 111.094 29.8879 112.199 30.627C113.303 31.3661 114.606 31.7357 116.109 31.7357C118.849 31.7357 120.998 30.627 122.56 28.4097C124.121 26.1923 124.901 22.7721 124.901 18.1489C124.901 16.3557 124.732 14.6343 124.394 12.9826C124.054 11.3319 123.525 9.88581 122.802 8.64324C122.08 7.40067 121.168 6.40984 120.064 5.67072C118.959 4.93268 117.641 4.56205 116.109 4.56205C113.398 4.56205 111.271 5.67072 109.724 7.88806C108.178 10.1054 107.404 13.5257 107.404 18.1489ZM103.516 18.1489C103.516 12.6452 104.606 8.42258 106.786 5.4822C108.966 2.54182 112.073 1.0711 116.109 1.0711C118.288 1.0711 120.174 1.48028 121.764 2.29759C123.355 3.11597 124.672 4.27178 125.719 5.765C126.764 7.25929 127.538 9.05137 128.038 11.1434C128.539 13.2354 128.79 15.5705 128.79 18.1489C128.79 23.6526 127.692 27.8751 125.498 30.8155C123.303 33.757 120.174 35.2266 116.109 35.2266C113.959 35.2266 112.095 34.8174 110.52 34.0001C108.944 33.1828 107.632 32.027 106.587 30.5327C105.541 29.0395 104.767 27.2464 104.267 25.1544C103.766 23.0634 103.516 20.7283 103.516 18.1489Z" fill="black"/>
<path d="M116.109 5.6334C113.713 5.6334 111.887 6.58032 110.529 8.5288C109.122 10.5469 108.407 13.784 108.407 18.149C108.407 19.8876 108.571 21.5554 108.893 23.1064C109.205 24.62 109.691 25.9622 110.338 27.0987C110.96 28.1924 111.766 29.074 112.731 29.7188C113.681 30.3562 114.787 30.6647 116.109 30.6647C118.536 30.6647 120.384 29.7167 121.758 27.7661C123.178 25.749 123.898 22.513 123.898 18.149C123.898 16.4427 123.736 14.7823 123.414 13.212C123.101 11.6877 122.609 10.3402 121.95 9.20793C121.313 8.10997 120.498 7.22625 119.53 6.57926C118.593 5.95155 117.441 5.6334 116.109 5.6334ZM116.109 32.807C114.422 32.807 112.927 32.3785 111.666 31.5345C110.435 30.7118 109.41 29.5935 108.624 28.2117C107.861 26.8738 107.294 25.312 106.933 23.5692C106.58 21.8671 106.401 20.0429 106.401 18.149C106.401 13.3127 107.248 9.64497 108.92 7.24874C110.66 4.75504 113.078 3.49105 116.109 3.49105C117.825 3.49105 119.334 3.91846 120.597 4.76255C121.825 5.58521 122.855 6.7003 123.656 8.07783C124.434 9.41788 125.012 10.9914 125.374 12.7535C125.726 14.4738 125.905 16.2895 125.905 18.149C125.905 22.9875 125.049 26.6563 123.363 29.0536C121.608 31.5441 119.167 32.807 116.109 32.807ZM116.109 2.14245C112.363 2.14245 109.571 3.45249 107.573 6.1465C105.547 8.88014 104.52 12.9185 104.52 18.149C104.52 20.6288 104.762 22.8965 105.239 24.8899C105.705 26.8352 106.429 28.518 107.391 29.8913C108.335 31.241 109.535 32.2982 110.957 33.0373C112.389 33.7786 114.123 34.1556 116.109 34.1556C119.887 34.1556 122.7 32.8445 124.713 30.1484C126.754 27.4158 127.787 23.3785 127.787 18.149C127.787 15.6735 127.545 13.4048 127.067 11.4092C126.601 9.46395 125.878 7.78113 124.916 6.40681C123.972 5.05927 122.765 4.00094 121.329 3.2629C119.882 2.5195 118.127 2.14245 116.109 2.14245ZM116.109 36.298C113.816 36.298 111.788 35.8492 110.081 34.9633C108.367 34.0742 106.921 32.7995 105.784 31.1746C104.664 29.5753 103.826 27.6386 103.296 25.4202C102.776 23.2532 102.513 20.8077 102.513 18.149C102.513 12.4236 103.686 7.93859 105.999 4.81718C108.369 1.62079 111.771 9.91821e-05 116.109 9.91821e-05C118.431 9.91821e-05 120.479 0.448917 122.199 1.33264C123.928 2.22171 125.383 3.4975 126.523 5.12355C127.642 6.72388 128.479 8.66057 129.011 10.8779C129.53 13.0481 129.793 15.4947 129.793 18.149C129.793 23.8755 128.612 28.3627 126.283 31.483C123.899 34.6784 120.476 36.298 116.109 36.298Z" fill="black"/>
<path d="M142.574 4.65621C141.808 4.65621 141.073 4.67227 140.365 4.70334C139.659 4.73547 139.098 4.81366 138.687 4.93899V18.6211C138.834 18.6843 139.069 18.7229 139.393 18.7379C139.717 18.755 140.056 18.77 140.409 18.7861C140.763 18.8022 141.102 18.8097 141.427 18.8097C141.75 18.8097 141.985 18.8097 142.133 18.8097C143.134 18.8097 144.128 18.7079 145.115 18.5022C146.102 18.2987 146.993 17.9291 147.788 17.3936C148.584 16.8601 149.225 16.1049 149.711 15.1291C150.197 14.1554 150.44 12.9118 150.44 11.4025C150.44 10.1139 150.211 9.03626 149.755 8.17075C149.297 7.30631 148.694 6.61431 147.944 6.09479C147.192 5.57634 146.345 5.2068 145.403 4.98614C144.46 4.76655 143.518 4.65621 142.574 4.65621ZM135.019 1.96755C136.139 1.68476 137.346 1.49518 138.642 1.40092C139.938 1.30665 141.219 1.25951 142.486 1.25951C143.842 1.25951 145.218 1.40091 146.618 1.68477C148.016 1.96756 149.29 2.48601 150.44 3.24119C151.588 3.99637 152.524 5.03328 153.246 6.35511C153.967 7.67587 154.328 9.35867 154.328 11.4025C154.328 13.4163 153.989 15.1141 153.311 16.4981C152.633 17.882 151.735 19.0057 150.616 19.8712C149.496 20.7367 148.215 21.3569 146.773 21.734C145.328 22.111 143.842 22.3006 142.31 22.3006C142.162 22.3006 141.919 22.3006 141.581 22.3006C141.242 22.3006 140.888 22.2931 140.52 22.2771C140.152 22.261 139.791 22.2374 139.437 22.2064C139.084 22.1753 138.834 22.1432 138.687 22.111V34.6609H135.019V1.96755Z" fill="black"/>
<path d="M139.69 17.6808L140.452 17.7162C140.792 17.7312 141.116 17.7386 141.427 17.7386H142.133C143.067 17.7386 144.006 17.6412 144.923 17.4516C145.784 17.2727 146.569 16.9492 147.254 16.4875C147.906 16.0505 148.42 15.441 148.826 14.6258C149.231 13.8128 149.437 12.7288 149.437 11.4027C149.437 10.3068 149.249 9.39634 148.881 8.69686C148.501 7.97917 148.016 7.4211 147.398 6.9937C146.753 6.54809 146.01 6.22567 145.189 6.03393C143.56 5.65366 141.898 5.7072 140.408 5.77361C140.126 5.78647 139.889 5.80682 139.69 5.83039V17.6808ZM142.133 19.881H141.427C141.089 19.881 140.735 19.8724 140.367 19.8564L139.346 19.8082C138.901 19.7878 138.572 19.7257 138.312 19.6143L137.684 19.3433V4.13152L138.412 3.90977C138.906 3.75981 139.531 3.66875 140.324 3.6334C141.973 3.56163 143.819 3.52094 145.617 3.93977C146.674 4.18721 147.64 4.60925 148.489 5.19519C149.373 5.8079 150.092 6.63162 150.629 7.64388C151.169 8.669 151.443 9.93407 151.443 11.4027C151.443 13.0833 151.159 14.5069 150.597 15.6327C150.031 16.7703 149.265 17.668 148.323 18.301C147.426 18.9041 146.411 19.3262 145.307 19.5543C144.264 19.7707 143.196 19.881 142.133 19.881ZM136.023 33.5899H137.684V20.8012L138.887 21.0614C139.01 21.0882 139.221 21.1129 139.519 21.1386C139.86 21.1686 140.206 21.1921 140.558 21.2071C140.916 21.2221 141.256 21.2296 141.582 21.2296H142.31C143.754 21.2296 145.174 21.0497 146.535 20.694C147.845 20.3513 149.021 19.7825 150.029 19.0026C151.015 18.24 151.821 17.2309 152.423 16.0012C153.022 14.779 153.326 13.2322 153.326 11.4027C153.326 9.5613 153.006 8.0445 152.379 6.89406C151.745 5.73397 150.916 4.81171 149.913 4.15401C148.875 3.47167 147.703 2.995 146.431 2.73684C143.811 2.20768 141.286 2.28267 138.71 2.47012C137.769 2.53867 136.869 2.65971 136.023 2.83324V33.5899ZM139.69 35.7323H134.016V1.12043L134.788 0.925465C135.957 0.62875 137.231 0.429508 138.574 0.333099C141.322 0.13279 144.022 0.0695953 146.804 0.631962C148.318 0.93832 149.718 1.50927 150.966 2.32979C152.252 3.17388 153.309 4.34682 154.112 5.8154C154.922 7.29684 155.332 9.17674 155.332 11.4027C155.332 13.5814 154.952 15.4624 154.2 16.9942C153.454 18.5195 152.446 19.7803 151.205 20.739C149.987 21.6806 148.576 22.3651 147.012 22.7743C145.495 23.1706 143.914 23.372 142.31 23.372H141.582C141.229 23.372 140.861 23.3634 140.479 23.3473C140.214 23.3356 139.95 23.3206 139.69 23.3013V35.7323Z" fill="black"/>
<path d="M39.6216 149.118C39.6216 149.506 39.6577 149.875 39.73 150.222C39.8022 150.571 39.9125 150.876 40.063 151.141C40.2135 151.404 40.4061 151.615 40.6409 151.773C40.8756 151.929 41.1536 152.007 41.4726 152.007C42.0555 152.007 42.5129 151.773 42.845 151.3C43.1761 150.829 43.3426 150.102 43.3426 149.118C43.3426 148.738 43.3065 148.372 43.2353 148.02C43.162 147.669 43.0497 147.362 42.8962 147.097C42.7427 146.832 42.5481 146.623 42.3143 146.465C42.0785 146.308 41.7986 146.229 41.4726 146.229C40.8957 146.229 40.4443 146.465 40.1152 146.936C39.7861 147.408 39.6216 148.135 39.6216 149.118ZM38.7949 149.118C38.7949 147.948 39.0267 147.05 39.4902 146.424C39.9537 145.799 40.6148 145.487 41.4726 145.487C41.9361 145.487 42.3374 145.574 42.6755 145.748C43.0136 145.922 43.2945 146.167 43.5162 146.485C43.7389 146.802 43.9034 147.184 44.0098 147.629C44.1161 148.074 44.1693 148.57 44.1693 149.118C44.1693 150.289 43.9365 151.188 43.469 151.812C43.0025 152.438 42.3374 152.751 41.4726 152.751C41.0151 152.751 40.6188 152.664 40.2837 152.49C39.9487 152.316 39.6697 152.071 39.448 151.752C39.2253 151.434 39.0608 151.054 38.9544 150.608C38.8481 150.164 38.7949 149.668 38.7949 149.118Z" fill="black"/>
<path d="M47.1013 146.249C46.9378 146.249 46.7813 146.252 46.6308 146.26C46.4803 146.266 46.3619 146.283 46.2737 146.31V149.219C46.3058 149.233 46.3549 149.241 46.4241 149.244C46.4934 149.247 46.5646 149.251 46.6409 149.255C46.7151 149.258 46.7873 149.259 46.8566 149.259C46.9258 149.259 46.9759 149.259 47.007 149.259C47.2197 149.259 47.4314 149.239 47.6411 149.195C47.8508 149.151 48.0404 149.073 48.2089 148.959C48.3785 148.844 48.5149 148.685 48.6182 148.477C48.7216 148.269 48.7737 148.006 48.7737 147.684C48.7737 147.41 48.7246 147.182 48.6273 146.998C48.5299 146.813 48.4015 146.666 48.242 146.556C48.0825 146.445 47.9019 146.367 47.7023 146.32C47.5016 146.274 47.301 146.249 47.1013 146.249ZM45.4941 145.678C45.7319 145.618 45.9887 145.577 46.2646 145.557C46.5405 145.537 46.8124 145.528 47.0813 145.528C47.3702 145.528 47.6631 145.557 47.9611 145.618C48.2581 145.678 48.529 145.788 48.7737 145.948C49.0175 146.11 49.2162 146.33 49.3697 146.61C49.5232 146.892 49.6004 147.249 49.6004 147.684C49.6004 148.113 49.5282 148.474 49.3837 148.768C49.2402 149.062 49.0486 149.301 48.8109 149.485C48.5731 149.669 48.3002 149.801 47.9932 149.881C47.6862 149.962 47.3702 150.001 47.0442 150.001C47.0131 150.001 46.9609 150.001 46.8897 150.001C46.8174 150.001 46.7422 150 46.6639 149.996C46.5857 149.994 46.5084 149.988 46.4332 149.982C46.3579 149.975 46.3058 149.968 46.2737 149.962V152.63H45.4941V145.678Z" fill="black"/>
<path d="M50.7466 145.607H54.3272V146.35H51.5271V148.647H54.0924V149.39H51.5271V151.888H54.3743V152.63H50.7466V145.607Z" fill="black"/>
<path d="M56.9665 148.034L56.4599 147.022H56.4228L56.5161 148.034V152.63H55.7827V145.497H56.1971L59.3442 150.182L59.8338 151.146H59.88L59.7766 150.182V145.607H60.51V152.74H60.0967L56.9665 148.034Z" fill="black"/>
</svg>
