<svg width="160" height="15" viewBox="0 0 160 15" fill="none" xmlns="http://www.w3.org/2000/svg">
<rect x="121.922" y="15" width="18.5245" height="15" transform="rotate(-180 121.922 15)" fill="#D9D9D9"/>
<path d="M118.301 11.8987C118.048 12.0065 117.627 12.1142 117.206 12.1142C116.617 12.1142 116.196 11.8449 116.196 11.36V8.88193H118.469V7.26578H116.196V5.64963V5.00317H112.659V5.64963V7.21191V11.4139C112.659 13.0301 114.175 13.8381 116.701 13.8381C117.627 13.8381 118.554 13.7304 119.143 13.461L118.301 11.8987Z" fill="black"/>
<path d="M106.092 3.99749C106.344 3.88975 106.765 3.78201 107.186 3.78201C107.776 3.78201 108.197 4.05137 108.197 4.53621V7.01431H105.923V8.63046H108.197V10.2466V10.8931H111.733V10.2466V8.68433V4.48234C111.733 2.86619 110.218 2.05812 107.692 2.05812C106.765 2.05812 105.839 2.16586 105.25 2.43522L106.092 3.99749Z" fill="black"/>
<path d="M129.263 7.59853V11.5597H126.381V8.0063C126.381 7.01601 125.901 6.60824 125.078 6.60824C124.186 6.60824 123.431 7.07426 123.431 8.23931V11.5597H120.55V2.1228H123.431V5.32669C124.049 4.80241 124.941 4.5694 125.901 4.5694C127.822 4.5694 129.263 5.50144 129.263 7.59853Z" fill="black"/>
<path d="M130.155 8.58892C130.155 6.49183 132.076 5.03552 134.752 5.03552C137.427 5.03552 139.349 6.49183 139.349 8.58892C139.349 10.686 137.427 12.1423 134.752 12.1423C132.145 12.1423 130.155 10.686 130.155 8.58892ZM136.467 8.58892C136.467 7.54038 135.712 6.95785 134.752 6.95785C133.791 6.95785 133.036 7.54038 133.036 8.58892C133.036 9.63746 133.791 10.22 134.752 10.22C135.712 10.22 136.467 9.63746 136.467 8.58892Z" fill="black"/>
<path d="M95.1641 8.58892C95.1641 6.49183 97.0852 5.03552 99.7609 5.03552C102.437 5.03552 104.358 6.49183 104.358 8.58892C104.358 10.686 102.437 12.1423 99.7609 12.1423C97.1538 12.1423 95.1641 10.686 95.1641 8.58892ZM101.476 8.58892C101.476 7.54038 100.721 6.95785 99.7609 6.95785C98.8004 6.95785 98.0457 7.54038 98.0457 8.58892C98.0457 9.63746 98.8004 10.22 99.7609 10.22C100.721 10.22 101.476 9.63746 101.476 8.58892Z" fill="black"/>
<path d="M152.659 9.69572L154.168 11.0355C153.413 11.7928 152.247 12.1423 150.738 12.1423C147.856 12.1423 145.935 10.6278 145.935 8.58892C145.935 6.49183 147.856 5.03552 150.463 5.03552C152.796 5.03552 154.786 6.31708 154.786 8.53067L148.954 9.46271C149.297 10.0452 149.914 10.2782 150.806 10.2782C151.561 10.2782 152.11 10.1035 152.659 9.69572ZM148.748 8.23941L152.041 7.71513C151.835 7.13261 151.287 6.7831 150.463 6.7831C149.503 6.72484 148.817 7.24911 148.748 8.23941Z" fill="black"/>
<path d="M82.1283 10.7843L83.4515 8.1104C84.6644 8.77887 86.4287 9.16086 87.9724 9.16086C89.5161 9.16086 90.0674 8.87437 90.0674 8.39689C90.0674 6.86896 82.3489 8.58788 82.3489 4.09958C82.3489 1.99867 84.6644 0.375244 88.7442 0.375244C90.6187 0.375244 92.6035 0.757227 93.9267 1.3302L92.6035 4.00408C91.2803 3.33561 89.9571 3.14462 88.8545 3.14462C87.3108 3.14462 86.7595 3.5266 86.7595 3.90859C86.7595 5.43652 94.478 3.81309 94.478 8.30139C94.478 10.4023 92.2727 12.0257 87.9724 12.0257C85.7671 11.9302 83.4515 11.4528 82.1283 10.7843Z" fill="black"/>
<path d="M145.043 9.57911C144.837 9.69562 144.494 9.81212 144.151 9.81212C143.671 9.81212 143.328 9.52086 143.328 8.99659V6.31698H145.18V4.5694H143.328V2.82183V2.1228H140.446V2.82183V4.51115V9.05484C140.446 10.8024 141.681 11.6762 143.74 11.6762C144.494 11.6762 145.249 11.5597 145.729 11.2684L145.043 9.57911Z" fill="black"/>
<path d="M155.54 9.63736V2.70532H158.353V9.52086C158.353 10.0451 158.696 10.2781 159.245 10.2781C159.451 10.2781 159.726 10.2199 159.863 10.1616L160 11.9675C159.52 12.084 159.108 12.1422 158.628 12.1422C156.707 12.1422 155.54 11.2684 155.54 9.63736Z" fill="black"/>
<path d="M4.81236 5.64C5.40436 5.64 5.94036 5.776 6.42036 6.048C6.90036 6.312 7.27636 6.688 7.54836 7.176C7.82036 7.664 7.95636 8.22 7.95636 8.844C7.95636 9.476 7.82036 10.036 7.54836 10.524C7.27636 11.012 6.90036 11.392 6.42036 11.664C5.94836 11.928 5.41236 12.06 4.81236 12.06C4.30036 12.06 3.83636 11.956 3.42036 11.748C3.01236 11.532 2.67636 11.22 2.41236 10.812V14.328H1.56036V5.688H2.37636V6.936C2.63236 6.52 2.96836 6.2 3.38436 5.976C3.80836 5.752 4.28436 5.64 4.81236 5.64ZM4.75236 11.304C5.19236 11.304 5.59236 11.204 5.95236 11.004C6.31236 10.796 6.59236 10.504 6.79236 10.128C7.00036 9.752 7.10436 9.324 7.10436 8.844C7.10436 8.364 7.00036 7.94 6.79236 7.572C6.59236 7.196 6.31236 6.904 5.95236 6.696C5.59236 6.488 5.19236 6.384 4.75236 6.384C4.30436 6.384 3.90036 6.488 3.54036 6.696C3.18836 6.904 2.90836 7.196 2.70036 7.572C2.50036 7.94 2.40036 8.364 2.40036 8.844C2.40036 9.324 2.50036 9.752 2.70036 10.128C2.90836 10.504 3.18836 10.796 3.54036 11.004C3.90036 11.204 4.30436 11.304 4.75236 11.304ZM12.2732 12.06C11.6652 12.06 11.1172 11.924 10.6292 11.652C10.1412 11.372 9.75717 10.988 9.47717 10.5C9.19717 10.012 9.05717 9.46 9.05717 8.844C9.05717 8.228 9.19717 7.676 9.47717 7.188C9.75717 6.7 10.1412 6.32 10.6292 6.048C11.1172 5.776 11.6652 5.64 12.2732 5.64C12.8812 5.64 13.4292 5.776 13.9172 6.048C14.4052 6.32 14.7852 6.7 15.0572 7.188C15.3372 7.676 15.4772 8.228 15.4772 8.844C15.4772 9.46 15.3372 10.012 15.0572 10.5C14.7852 10.988 14.4052 11.372 13.9172 11.652C13.4292 11.924 12.8812 12.06 12.2732 12.06ZM12.2732 11.304C12.7212 11.304 13.1212 11.204 13.4732 11.004C13.8332 10.796 14.1132 10.504 14.3132 10.128C14.5132 9.752 14.6132 9.324 14.6132 8.844C14.6132 8.364 14.5132 7.936 14.3132 7.56C14.1132 7.184 13.8332 6.896 13.4732 6.696C13.1212 6.488 12.7212 6.384 12.2732 6.384C11.8252 6.384 11.4212 6.488 11.0612 6.696C10.7092 6.896 10.4292 7.184 10.2212 7.56C10.0212 7.936 9.92117 8.364 9.92117 8.844C9.92117 9.324 10.0212 9.752 10.2212 10.128C10.4292 10.504 10.7092 10.796 11.0612 11.004C11.4212 11.204 11.8252 11.304 12.2732 11.304ZM26.3048 5.688L23.9168 12H23.1128L21.1208 6.828L19.1288 12H18.3248L15.9488 5.688H16.7648L18.7448 11.052L20.7728 5.688H21.5048L23.5208 11.052L25.5248 5.688H26.3048ZM32.9079 9.108H27.6279C27.6759 9.764 27.9279 10.296 28.3839 10.704C28.8399 11.104 29.4159 11.304 30.1119 11.304C30.5039 11.304 30.8639 11.236 31.1919 11.1C31.5199 10.956 31.8039 10.748 32.0439 10.476L32.5239 11.028C32.2439 11.364 31.8919 11.62 31.4679 11.796C31.0519 11.972 30.5919 12.06 30.0879 12.06C29.4399 12.06 28.8639 11.924 28.3599 11.652C27.8639 11.372 27.4759 10.988 27.1959 10.5C26.9159 10.012 26.7759 9.46 26.7759 8.844C26.7759 8.228 26.9079 7.676 27.1719 7.188C27.4439 6.7 27.8119 6.32 28.2759 6.048C28.7479 5.776 29.2759 5.64 29.8599 5.64C30.4439 5.64 30.9679 5.776 31.4319 6.048C31.8959 6.32 32.2599 6.7 32.5239 7.188C32.7879 7.668 32.9199 8.22 32.9199 8.844L32.9079 9.108ZM29.8599 6.372C29.2519 6.372 28.7399 6.568 28.3239 6.96C27.9159 7.344 27.6839 7.848 27.6279 8.472H32.1039C32.0479 7.848 31.8119 7.344 31.3959 6.96C30.9879 6.568 30.4759 6.372 29.8599 6.372ZM35.4701 6.924C35.6701 6.5 35.9661 6.18 36.3581 5.964C36.7581 5.748 37.2501 5.64 37.8341 5.64V6.468L37.6301 6.456C36.9661 6.456 36.4461 6.66 36.0701 7.068C35.6941 7.476 35.5061 8.048 35.5061 8.784V12H34.6541V5.688H35.4701V6.924ZM44.8142 9.108H39.5342C39.5822 9.764 39.8342 10.296 40.2902 10.704C40.7462 11.104 41.3222 11.304 42.0182 11.304C42.4102 11.304 42.7702 11.236 43.0982 11.1C43.4262 10.956 43.7102 10.748 43.9502 10.476L44.4302 11.028C44.1502 11.364 43.7982 11.62 43.3742 11.796C42.9582 11.972 42.4982 12.06 41.9942 12.06C41.3462 12.06 40.7702 11.924 40.2662 11.652C39.7702 11.372 39.3822 10.988 39.1022 10.5C38.8222 10.012 38.6822 9.46 38.6822 8.844C38.6822 8.228 38.8142 7.676 39.0782 7.188C39.3502 6.7 39.7182 6.32 40.1822 6.048C40.6542 5.776 41.1822 5.64 41.7662 5.64C42.3502 5.64 42.8742 5.776 43.3382 6.048C43.8022 6.32 44.1662 6.7 44.4302 7.188C44.6942 7.668 44.8262 8.22 44.8262 8.844L44.8142 9.108ZM41.7662 6.372C41.1582 6.372 40.6462 6.568 40.2302 6.96C39.8222 7.344 39.5902 7.848 39.5342 8.472H44.0102C43.9542 7.848 43.7182 7.344 43.3022 6.96C42.8942 6.568 42.3822 6.372 41.7662 6.372ZM52.3204 3.096V12H51.5044V10.752C51.2484 11.176 50.9084 11.5 50.4844 11.724C50.0684 11.948 49.5964 12.06 49.0684 12.06C48.4764 12.06 47.9404 11.924 47.4604 11.652C46.9804 11.38 46.6044 11 46.3324 10.512C46.0604 10.024 45.9244 9.468 45.9244 8.844C45.9244 8.22 46.0604 7.664 46.3324 7.176C46.6044 6.688 46.9804 6.312 47.4604 6.048C47.9404 5.776 48.4764 5.64 49.0684 5.64C49.5804 5.64 50.0404 5.748 50.4484 5.964C50.8644 6.172 51.2044 6.48 51.4684 6.888V3.096H52.3204ZM49.1404 11.304C49.5804 11.304 49.9764 11.204 50.3284 11.004C50.6884 10.796 50.9684 10.504 51.1684 10.128C51.3764 9.752 51.4804 9.324 51.4804 8.844C51.4804 8.364 51.3764 7.936 51.1684 7.56C50.9684 7.184 50.6884 6.896 50.3284 6.696C49.9764 6.488 49.5804 6.384 49.1404 6.384C48.6924 6.384 48.2884 6.488 47.9284 6.696C47.5764 6.896 47.2964 7.184 47.0884 7.56C46.8884 7.936 46.7884 8.364 46.7884 8.844C46.7884 9.324 46.8884 9.752 47.0884 10.128C47.2964 10.504 47.5764 10.796 47.9284 11.004C48.2884 11.204 48.6924 11.304 49.1404 11.304ZM61.0858 5.64C61.6778 5.64 62.2138 5.776 62.6938 6.048C63.1738 6.312 63.5498 6.688 63.8218 7.176C64.0938 7.664 64.2298 8.22 64.2298 8.844C64.2298 9.468 64.0938 10.024 63.8218 10.512C63.5498 11 63.1738 11.38 62.6938 11.652C62.2138 11.924 61.6778 12.06 61.0858 12.06C60.5578 12.06 60.0818 11.948 59.6578 11.724C59.2418 11.5 58.9058 11.176 58.6498 10.752V12H57.8338V3.096H58.6858V6.888C58.9498 6.48 59.2858 6.172 59.6938 5.964C60.1098 5.748 60.5738 5.64 61.0858 5.64ZM61.0258 11.304C61.4658 11.304 61.8658 11.204 62.2258 11.004C62.5858 10.796 62.8658 10.504 63.0658 10.128C63.2738 9.752 63.3778 9.324 63.3778 8.844C63.3778 8.364 63.2738 7.936 63.0658 7.56C62.8658 7.184 62.5858 6.896 62.2258 6.696C61.8658 6.488 61.4658 6.384 61.0258 6.384C60.5778 6.384 60.1738 6.488 59.8138 6.696C59.4618 6.896 59.1818 7.184 58.9738 7.56C58.7738 7.936 58.6738 8.364 58.6738 8.844C58.6738 9.324 58.7738 9.752 58.9738 10.128C59.1818 10.504 59.4618 10.796 59.8138 11.004C60.1738 11.204 60.5778 11.304 61.0258 11.304ZM71.0948 5.688L67.9388 12.756C67.6828 13.348 67.3868 13.768 67.0508 14.016C66.7148 14.264 66.3108 14.388 65.8388 14.388C65.5348 14.388 65.2508 14.34 64.9868 14.244C64.7228 14.148 64.4948 14.004 64.3028 13.812L64.6988 13.176C65.0188 13.496 65.4028 13.656 65.8508 13.656C66.1388 13.656 66.3828 13.576 66.5828 13.416C66.7908 13.256 66.9828 12.984 67.1588 12.6L67.4348 11.988L64.6148 5.688H65.5028L67.8788 11.052L70.2548 5.688H71.0948ZM72.4725 6.948C72.2965 6.948 72.1445 6.884 72.0165 6.756C71.8965 6.628 71.8365 6.472 71.8365 6.288C71.8365 6.104 71.8965 5.952 72.0165 5.832C72.1445 5.704 72.2965 5.64 72.4725 5.64C72.6485 5.64 72.8005 5.704 72.9285 5.832C73.0565 5.952 73.1205 6.104 73.1205 6.288C73.1205 6.472 73.0565 6.628 72.9285 6.756C72.8005 6.884 72.6485 6.948 72.4725 6.948ZM72.4725 12.06C72.2965 12.06 72.1445 11.996 72.0165 11.868C71.8965 11.74 71.8365 11.584 71.8365 11.4C71.8365 11.216 71.8965 11.064 72.0165 10.944C72.1445 10.816 72.2965 10.752 72.4725 10.752C72.6485 10.752 72.8005 10.816 72.9285 10.944C73.0565 11.064 73.1205 11.216 73.1205 11.4C73.1205 11.584 73.0565 11.74 72.9285 11.868C72.8005 11.996 72.6485 12.06 72.4725 12.06Z" fill="black"/>
</svg>
