<svg width="600" height="573" viewBox="0 0 600 573" fill="none" xmlns="http://www.w3.org/2000/svg">
<path d="M600 573H0V2.563e-06H600V573Z" fill="white"/>
<path d="M375.585 242.934C391.251 242.37 404.427 254.043 405.018 269.004C405.609 283.965 393.388 296.551 377.722 297.115C362.057 297.679 348.878 286.006 348.287 271.045C347.696 256.084 359.917 243.498 375.585 242.934ZM378.494 318.892C406.313 317.889 428.013 295.543 426.965 268.976C425.917 242.41 402.516 221.686 374.697 222.687C346.879 223.688 325.177 246.036 326.227 272.602C327.275 299.169 350.676 319.892 378.494 318.892Z" fill="black"/>
<path d="M375.608 243.439C360.257 243.99 348.239 256.366 348.819 271.023C349.097 278.127 352.256 284.697 357.715 289.529C363.169 294.359 370.269 296.874 377.703 296.606C385.139 296.34 392.022 293.321 397.082 288.113C402.142 282.902 404.775 276.123 404.494 269.019C403.914 254.362 390.956 242.884 375.608 243.439V243.439ZM376.629 297.637C369.319 297.637 362.384 295.044 356.993 290.269C351.329 285.254 348.052 278.433 347.761 271.063C347.162 255.846 359.635 243 375.568 242.428C391.489 241.851 404.949 253.765 405.553 268.984C405.841 276.354 403.108 283.391 397.856 288.8C392.607 294.209 385.462 297.341 377.745 297.617C377.37 297.632 376.999 297.637 376.629 297.637V297.637ZM376.621 223.154C375.988 223.154 375.358 223.167 374.72 223.189C361.407 223.668 349.087 229.07 340.025 238.398C330.969 247.727 326.255 259.869 326.757 272.58C327.77 298.218 349.932 318.418 376.574 318.42C377.207 318.42 377.84 318.408 378.478 318.385C391.791 317.906 404.108 312.505 413.17 303.176C422.226 293.848 426.94 281.705 426.438 268.992C425.427 243.356 403.265 223.154 376.621 223.154V223.154ZM376.574 319.431C349.365 319.431 326.733 298.8 325.701 272.618C325.187 259.633 330 247.235 339.251 237.711C348.504 228.185 361.084 222.668 374.681 222.179C402.748 221.161 426.438 242.152 427.496 268.957C428.009 281.939 423.195 294.334 413.945 303.863C404.691 313.387 392.111 318.904 378.514 319.393C377.868 319.418 377.217 319.431 376.574 319.431Z" fill="black"/>
<path d="M352.774 313.213C357.392 307.338 361.913 301.354 365.996 295.147C363.826 294.306 361.789 293.215 359.919 291.911C353.237 296.149 347.427 300.027 340.34 304.338C344.321 308.682 347.42 310.467 352.774 313.213Z" fill="white"/>
<path d="M387.956 294.889C393.057 300.502 398.556 305.739 403.862 311.279C408.648 308.335 412.865 304.637 416.347 300.375C407.2 296.521 402.132 293.587 394.608 291.008C392.602 292.574 390.373 293.889 387.956 294.889Z" fill="white"/>
<path d="M399.015 253.355C407.69 249.047 412.16 246.941 417.986 242.641C410.814 234.574 404.205 230.036 398.33 227.35C395.335 233.45 392.404 239.665 388.942 245.587C392.389 247.174 396.507 250.637 399.015 253.355" fill="#A3FFA2"/>
<path d="M389.674 245.372C392.981 247.027 396.705 250.156 399.139 252.726L400.551 252.024C407.91 248.376 412.054 246.323 417.225 242.562C411.184 235.85 405.075 231.091 398.584 228.026C398.209 228.791 397.834 229.553 397.462 230.321C395.028 235.311 392.517 240.463 389.674 245.372ZM399.015 253.861C398.867 253.861 398.723 253.802 398.62 253.689C396.232 251.102 392.116 247.606 388.714 246.044C388.586 245.98 388.483 245.875 388.442 245.74C388.396 245.607 388.411 245.463 388.483 245.342C391.415 240.325 393.998 235.024 396.502 229.894C396.951 228.972 397.4 228.05 397.852 227.133C397.911 227.01 398.019 226.917 398.15 226.873C398.286 226.826 398.433 226.834 398.558 226.893C405.501 230.066 411.987 235.11 418.391 242.312C418.484 242.417 418.53 242.554 418.514 242.692C418.499 242.829 418.427 242.954 418.311 243.037C412.858 247.064 408.66 249.143 401.039 252.922L399.259 253.805C399.18 253.841 399.1 253.861 399.015 253.861" fill="black"/>
<path d="M353.782 253.907C356.252 251.267 360.965 247.151 364.354 245.592C360.298 239.979 356.449 234.185 352.04 228.739C345.238 231.361 336.649 240.132 333.305 245.954C339.865 249.021 346.261 251.035 353.782 253.907" fill="#3EDDD7"/>
<path d="M334.042 245.734C338.365 247.723 342.673 249.286 347.223 250.941C349.282 251.689 351.411 252.463 353.636 253.309C355.839 251.01 360.147 247.166 363.577 245.404C362.501 243.907 361.426 242.385 360.385 240.909C357.677 237.07 354.881 233.103 351.869 229.355C345.673 231.929 337.575 239.896 334.042 245.734V245.734ZM353.78 254.414C353.715 254.414 353.648 254.402 353.585 254.377C351.243 253.483 349.009 252.669 346.846 251.886C342.097 250.16 337.609 248.528 333.073 246.408C332.943 246.346 332.845 246.238 332.799 246.105C332.756 245.975 332.77 245.83 332.84 245.711C336.37 239.564 345.044 230.889 351.841 228.271C352.061 228.186 352.313 228.253 352.457 228.429C355.587 232.294 358.472 236.385 361.263 240.343C362.413 241.975 363.603 243.662 364.789 245.303C364.877 245.424 364.906 245.578 364.865 245.72C364.827 245.862 364.724 245.981 364.585 246.046C361.465 247.48 356.895 251.34 354.176 254.244C354.073 254.354 353.929 254.414 353.78 254.414" fill="black"/>
<path d="M234.398 293.333C234.398 293.333 234.133 211.33 291.679 128.327C291.679 128.327 321.471 188.843 251.881 300.37L234.398 293.333Z" fill="#8CB3FF"/>
<path d="M234.928 293.001L251.659 299.733C287.327 242.449 296.193 198.987 297.343 172.595C298.427 147.752 293.064 132.976 291.574 129.395C262.277 171.928 248.436 214.088 241.983 242.036C235.431 270.397 234.961 290.223 234.928 293.001ZM251.878 300.878C251.811 300.878 251.741 300.864 251.674 300.836L234.191 293.801C233.996 293.722 233.868 293.539 233.867 293.334C233.867 293.132 233.883 272.424 240.941 241.85C247.452 213.634 261.466 170.992 291.237 128.049C291.343 127.896 291.523 127.811 291.717 127.825C291.909 127.838 292.075 127.948 292.158 128.114C292.232 128.264 299.648 143.688 298.404 172.548C297.677 189.471 294.162 207.653 287.962 226.588C280.215 250.246 268.229 275.158 252.334 300.63C252.235 300.788 252.06 300.878 251.878 300.878" fill="black"/>
<path d="M245.167 289.636C245.09 289.636 245.011 289.62 244.936 289.585C244.673 289.463 244.562 289.164 244.69 288.912C266.717 245.338 289.055 142.499 289.277 141.466C289.338 141.193 289.618 141.018 289.904 141.071C290.19 141.129 290.373 141.397 290.315 141.67C290.09 142.703 267.727 245.666 245.645 289.352C245.553 289.53 245.364 289.636 245.167 289.636" fill="black"/>
<path d="M308.469 193.404C308.469 193.404 235.986 251.202 245.874 292.816L258.708 297.981C258.708 297.981 309.837 250.576 308.469 193.404Z" fill="#83FF9E"/>
<path d="M246.332 292.451L258.586 297.386C260.43 295.627 272.191 284.134 283.671 266.839C294.99 249.777 308.316 223.459 307.957 194.482C304.181 197.589 288.467 210.835 273.864 227.834C258.599 245.605 241.468 271.205 246.332 292.451ZM258.708 298.489C258.64 298.489 258.569 298.475 258.503 298.447L245.67 293.283C245.512 293.218 245.397 293.085 245.358 292.927C243.078 283.323 244.977 272.084 251.004 259.514C255.802 249.505 263.224 238.625 273.055 227.181C289.778 207.72 307.95 193.158 308.128 193.013C308.284 192.89 308.504 192.862 308.687 192.941C308.873 193.023 308.992 193.195 308.997 193.391C309.708 223.051 296.093 250.008 284.548 267.401C272.049 286.233 259.207 298.228 259.077 298.344C258.977 298.437 258.845 298.489 258.708 298.489Z" fill="black"/>
<path d="M251.004 297.693C250.941 297.693 250.877 297.681 250.814 297.66C250.543 297.56 250.403 297.268 250.506 297.007C262.79 266.103 307.559 193.873 308.011 193.148C308.16 192.907 308.485 192.828 308.736 192.97C308.988 193.113 309.068 193.423 308.919 193.663C308.473 194.389 263.748 266.544 251.497 297.366C251.417 297.569 251.217 297.693 251.004 297.693Z" fill="black"/>
<path d="M226.827 193.714C226.827 193.714 255.561 219.27 236.82 294.56L223.456 289.18C223.456 289.18 212.616 239.323 226.827 193.714Z" fill="#335BEA"/>
<path d="M223.918 288.82L236.447 293.862C245.909 255.471 242.726 230.419 238.371 216.142C234.448 203.282 228.903 196.636 227.075 194.698C213.968 237.754 223.116 284.898 223.918 288.82ZM236.818 295.065C236.748 295.065 236.678 295.053 236.613 295.025L223.249 289.647C223.088 289.582 222.971 289.447 222.936 289.286C222.827 288.785 212.232 238.782 226.318 193.572C226.37 193.404 226.509 193.274 226.686 193.23C226.862 193.183 227.052 193.227 227.186 193.346C227.484 193.612 234.531 200.01 239.358 215.762C243.792 230.237 247.041 255.68 237.333 294.678C237.297 294.822 237.196 294.944 237.057 295.014C236.982 295.046 236.9 295.065 236.818 295.065Z" fill="black"/>
<path d="M230.39 290.144C230.347 290.144 230.303 290.139 230.26 290.13C229.977 290.061 229.804 289.786 229.876 289.516C238.674 256.039 230.689 215.573 230.607 215.17C230.552 214.895 230.74 214.629 231.027 214.579C231.314 214.521 231.591 214.703 231.647 214.978C231.729 215.386 239.757 256.071 230.902 289.761C230.842 289.993 230.626 290.144 230.39 290.144" fill="black"/>
<path d="M117.155 198.167C117.148 198.167 117.141 198.167 117.134 198.165C116.842 198.156 116.615 197.921 116.626 197.642L116.886 191.257C116.897 190.978 117.135 190.755 117.436 190.771C117.727 190.781 117.955 191.015 117.944 191.294L117.683 197.682C117.672 197.954 117.438 198.167 117.155 198.167Z" fill="white"/>
<path d="M167.895 188.422C167.631 188.422 167.403 188.232 167.37 187.977L166.56 181.634C166.525 181.357 166.731 181.105 167.021 181.071C167.308 181.03 167.576 181.234 167.611 181.511L168.421 187.855C168.456 188.131 168.25 188.384 167.96 188.417C167.938 188.42 167.916 188.422 167.895 188.422Z" fill="white"/>
<path d="M242.257 174.272C242.028 174.272 241.817 174.13 241.75 173.909L239.858 167.78C239.775 167.513 239.935 167.232 240.217 167.152C240.495 167.073 240.79 167.227 240.874 167.496L242.765 173.625C242.847 173.891 242.688 174.173 242.408 174.252C242.357 174.267 242.307 174.272 242.257 174.272" fill="white"/>
<path d="M290.578 156.268C290.423 156.268 290.268 156.203 290.165 156.079L285.974 151.096C285.792 150.881 285.828 150.562 286.056 150.388C286.284 150.212 286.615 150.246 286.8 150.463L290.991 155.446C291.173 155.664 291.135 155.983 290.907 156.157C290.812 156.232 290.695 156.268 290.578 156.268" fill="white"/>
<path d="M246.704 361.161C245.434 361.379 244.183 360.696 243.912 359.633L181.236 113.742C180.965 112.68 181.775 111.64 183.046 111.419C184.316 111.201 185.566 111.884 185.837 112.946L248.516 358.84C248.784 359.901 247.976 360.942 246.704 361.161" fill="black"/>
<path d="M116.675 194.134C131.856 186.577 148.113 181.743 167.359 184.46C188.468 173.266 219.073 165.21 241.635 170.288C254.775 162.142 271.846 149.15 289.191 153.028C264.397 124.659 243.999 111.642 198.54 115.551C147.996 119.898 119.475 154.443 116.469 192.804C116.434 193.251 116.602 193.693 116.675 194.134" fill="#FFD56A"/>
<path d="M213.63 115.363C208.938 115.363 203.941 115.595 198.588 116.054C152.367 120.029 120.341 150.169 116.997 192.843C116.984 193.009 117.011 193.187 117.052 193.376C135.049 184.528 150.567 181.611 167.259 183.936C187.638 173.167 218.419 164.642 241.537 169.745C243.051 168.806 244.602 167.81 246.239 166.76C258.133 159.135 272.838 149.703 287.809 152.242C266.346 127.912 248.348 115.363 213.63 115.363V115.363ZM116.675 194.637C116.593 194.637 116.512 194.62 116.437 194.583C116.285 194.51 116.179 194.372 116.152 194.211C116.131 194.081 116.1 193.951 116.07 193.821C115.995 193.506 115.912 193.147 115.941 192.766C117.483 173.1 125.776 154.739 139.293 141.076C154.102 126.104 174.573 117.104 198.493 115.047C220.672 113.14 237.624 115.262 251.843 121.728C264.435 127.455 275.372 136.429 289.597 152.705C289.744 152.871 289.76 153.108 289.64 153.295C289.523 153.478 289.295 153.571 289.072 153.52C274.033 150.157 258.949 159.829 246.829 167.601C245.12 168.696 243.505 169.731 241.924 170.71C241.801 170.786 241.655 170.812 241.513 170.781C218.589 165.621 187.88 174.155 167.616 184.901C167.515 184.957 167.397 184.977 167.282 184.96C150.567 182.596 135.034 185.567 116.92 194.58C116.843 194.62 116.759 194.637 116.675 194.637" fill="black"/>
<path d="M167.361 184.474C163.067 160.457 168.398 137.841 182.24 119.026C183.331 117.543 185.332 116.947 187.128 117.532C213.438 126.102 229.355 147.08 241.611 170.182C211.81 168.805 186.999 175.078 167.361 184.474" fill="white"/>
<path d="M185.736 117.817C184.537 117.817 183.378 118.358 182.674 119.316C168.898 138.039 163.75 160.295 167.766 183.717C189.842 173.285 214.379 168.551 240.728 169.635C230.351 150.23 214.853 127.095 186.958 118.01C186.557 117.879 186.144 117.817 185.736 117.817ZM167.361 184.977C167.279 184.977 167.198 184.961 167.123 184.924C166.973 184.851 166.868 184.717 166.84 184.557C162.56 160.623 167.736 137.86 181.807 118.733C183.02 117.086 185.277 116.394 187.3 117.052C215.927 126.375 231.615 150.219 242.084 169.951C242.17 170.111 242.158 170.304 242.055 170.456C241.954 170.607 241.774 170.694 241.587 170.685C214.822 169.45 189.929 174.24 167.599 184.924C167.524 184.961 167.443 184.977 167.361 184.977Z" fill="black"/>
<path d="M95.2729 253.036H95.278H95.2729ZM96.7304 253.243C96.3085 253.243 95.8871 253.327 95.4899 253.497C93.9244 254.168 93.213 255.959 93.9035 257.487C94.2402 258.232 94.8551 258.803 95.6344 259.092C96.3961 259.376 97.2265 259.355 97.9734 259.034C99.5384 258.363 100.25 256.573 99.5598 255.046C99.2228 254.299 98.6082 253.728 97.8284 253.44C97.4723 253.307 97.101 253.243 96.7304 253.243ZM96.7331 260.302C96.2327 260.302 95.7318 260.212 95.2508 260.034C94.2054 259.646 93.3815 258.883 92.9315 257.888C92.0132 255.855 92.966 253.472 95.056 252.576C96.063 252.142 97.1836 252.117 98.212 252.498C99.2579 252.887 100.082 253.648 100.532 254.645C101.45 256.676 100.497 259.06 98.4071 259.956C97.8712 260.187 97.3026 260.302 96.7331 260.302" fill="black"/>
<path d="M273.768 89.4512C273.713 89.4512 273.655 89.4422 273.6 89.4242C273.322 89.3343 273.173 89.0497 273.267 88.7831L274.574 85.0681C274.668 84.8014 274.968 84.6607 275.244 84.7475C275.52 84.8374 275.671 85.125 275.578 85.3887L274.27 89.1066C274.195 89.3164 273.989 89.4512 273.768 89.4512Z" fill="black"/>
<path d="M270.722 98.1086C270.664 98.1086 270.609 98.1028 270.552 98.0851C270.276 97.9939 270.127 97.7084 270.22 97.4435L271.526 93.7268C271.619 93.4619 271.919 93.3207 272.198 93.409C272.474 93.4972 272.623 93.7827 272.529 94.0476L271.223 97.7643C271.149 97.9762 270.943 98.1086 270.722 98.1086" fill="black"/>
<path d="M270.311 91.0934C270.254 91.0934 270.199 91.0845 270.141 91.0666L266.251 89.816C265.972 89.7268 265.824 89.4417 265.917 89.1773C266.011 88.9129 266.311 88.7703 266.587 88.8594L270.48 90.1071C270.756 90.1962 270.907 90.4844 270.813 90.7488C270.739 90.9597 270.532 91.0934 270.311 91.0934" fill="black"/>
<path d="M279.376 94.0015C279.321 94.0015 279.264 93.9927 279.208 93.975L275.315 92.7259C275.04 92.6373 274.891 92.3509 274.984 92.0851C275.075 91.8223 275.378 91.6806 275.654 91.7662L279.544 93.0153C279.823 93.1068 279.972 93.3933 279.878 93.6561C279.803 93.8687 279.597 94.0015 279.376 94.0015" fill="black"/>
<path d="M105.663 221.886C105.466 221.886 105.276 221.78 105.185 221.599L103.776 218.787C103.65 218.537 103.761 218.235 104.025 218.113C104.288 217.994 104.604 218.099 104.73 218.352L106.14 221.162C106.266 221.414 106.155 221.716 105.891 221.835C105.817 221.87 105.74 221.886 105.663 221.886" fill="black"/>
<path d="M110.596 231.723C110.399 231.723 110.209 231.617 110.118 231.434L108.709 228.624C108.583 228.372 108.694 228.072 108.957 227.95C109.221 227.831 109.537 227.937 109.664 228.189L111.073 230.999C111.199 231.251 111.088 231.553 110.824 231.672C110.75 231.707 110.673 231.723 110.596 231.723Z" fill="black"/>
<path d="M100.807 228.434C100.61 228.434 100.42 228.331 100.33 228.147C100.203 227.898 100.314 227.595 100.577 227.474L103.519 226.126C103.782 226.004 104.099 226.11 104.225 226.362C104.352 226.612 104.241 226.914 103.977 227.036L101.036 228.386C100.962 228.42 100.884 228.434 100.807 228.434Z" fill="black"/>
<path d="M111.101 223.712C110.904 223.712 110.715 223.607 110.624 223.426C110.497 223.174 110.608 222.871 110.872 222.75L113.813 221.402C114.076 221.281 114.392 221.386 114.519 221.638C114.646 221.89 114.535 222.191 114.271 222.312L111.33 223.662C111.256 223.696 111.178 223.712 111.101 223.712Z" fill="black"/>
<path d="M372.431 117.29C372.431 129.015 362.477 138.521 350.2 138.521C337.92 138.521 327.968 129.015 327.968 117.29C327.968 105.563 337.92 96.0591 350.2 96.0591C362.477 96.0591 372.431 105.563 372.431 117.29Z" fill="#FCE831"/>
<path d="M350.199 96.5653C338.231 96.5653 328.499 105.862 328.499 117.292C328.499 128.718 338.231 138.015 350.199 138.015C362.164 138.015 371.899 128.718 371.899 117.292C371.899 105.862 362.164 96.5653 350.199 96.5653ZM350.199 139.026C337.648 139.026 327.438 129.278 327.438 117.292C327.438 105.306 337.648 95.5548 350.199 95.5548C362.747 95.5548 372.96 105.306 372.96 117.292C372.96 129.278 362.747 139.026 350.199 139.026Z" fill="#FFCB47"/>
<path d="M535 503.69H44.9096V332.852H535V503.69Z" fill="#335BEA"/>
<path d="M535 331.839H43.8511V287.36H535V331.839Z" fill="white"/>
<path d="M44.3805 331.335H534.473V287.867H44.3805V331.335ZM535 332.346H43.8512C43.5588 332.346 43.3218 332.119 43.3218 331.839V287.36C43.3218 287.083 43.5588 286.856 43.8512 286.856H535C535.294 286.856 535.531 287.083 535.531 287.36V331.839C535.531 332.119 535.294 332.346 535 332.346" fill="black"/>
<path d="M533.943 342.96H44.9095V318.699H533.943V342.96" fill="white"/>
<path d="M45.4391 342.454H533.416V319.203H45.4391V342.454ZM533.943 343.464H44.9097C44.6173 343.464 44.3806 343.24 44.3806 342.96V318.699C44.3806 318.42 44.6173 318.193 44.9097 318.193H533.943C534.237 318.193 534.473 318.42 534.473 318.699V342.96C534.473 343.24 534.237 343.464 533.943 343.464" fill="black"/>
<path d="M432.31 293.316C432.308 293.316 432.308 293.316 432.305 293.316C412.214 293.037 386.963 292.888 359.29 292.872C358.995 292.872 358.759 292.647 358.759 292.368C358.759 292.089 358.995 291.863 359.29 291.863C386.971 291.876 412.224 292.028 432.321 292.304C432.61 292.309 432.844 292.538 432.841 292.819C432.836 293.096 432.602 293.316 432.31 293.316Z" fill="white"/>
<path d="M243.382 293.584C243.094 293.584 242.856 293.364 242.854 293.087C242.849 292.807 243.082 292.578 243.375 292.573C251.703 292.463 260.427 292.362 269.302 292.278C269.595 292.296 269.833 292.5 269.837 292.777C269.84 293.057 269.605 293.286 269.312 293.288C260.439 293.373 251.717 293.474 243.389 293.584C243.387 293.584 243.384 293.584 243.382 293.584" fill="white"/>
<path d="M384.001 385.741C384.001 393.247 377.439 397.946 370.061 397.946C362.684 397.946 351.473 393.247 351.473 385.741C351.473 378.235 362.689 370.563 370.061 370.302C380.516 369.933 384.001 378.235 384.001 385.741Z" fill="black"/>
<path d="M351.077 396.779C350.864 396.779 350.662 396.653 350.583 396.452C349.292 393.17 353.017 390.357 353.177 390.238C353.408 390.066 353.739 390.107 353.919 390.327C354.099 390.547 354.056 390.864 353.825 391.036C353.794 391.061 350.557 393.511 351.572 396.096C351.675 396.358 351.538 396.649 351.265 396.747C351.202 396.768 351.14 396.779 351.077 396.779" fill="black"/>
<path d="M339.581 408.899C340.368 408.028 348.416 397.261 348.416 397.261L339.581 408.899Z" fill="black"/>
<path d="M339.581 409.404C339.459 409.404 339.336 409.365 339.236 409.282C339.015 409.099 338.991 408.78 339.18 408.569C339.79 407.896 345.207 400.685 347.986 396.967C348.156 396.74 348.485 396.688 348.725 396.85C348.963 397.011 349.018 397.327 348.848 397.554C348.519 397.994 340.774 408.352 339.982 409.23C339.879 409.344 339.73 409.404 339.581 409.404" fill="black"/>
<path d="M343.688 386.445L330.742 383.942L343.688 386.445" fill="black"/>
<path d="M343.688 386.949C343.652 386.949 343.618 386.947 343.582 386.94L330.636 384.437C330.351 384.382 330.164 384.114 330.224 383.841C330.281 383.566 330.562 383.389 330.848 383.447L343.791 385.95C344.079 386.005 344.264 386.27 344.206 386.545C344.156 386.784 343.935 386.949 343.688 386.949" fill="black"/>
<path d="M447.893 397.946C440.76 399.252 435.847 400.547 433.084 401.829C422.144 399.241 403.496 398.258 385.161 397.114L349.476 396.355C348.114 393.011 345.336 392.881 343.778 389.624C343.065 389.638 343.693 386.541 343.269 386.55L343.19 386.385C340.932 380.144 337.674 374.951 333.131 371.111C330.731 368.776 327.721 367.061 324.357 366.207C323.752 366.106 284.677 350.795 284.677 350.795L233.272 352.459L221.075 363.552L223.979 364.662L234.434 359.947L238.21 361.056L241.404 357.451L275.964 360.502L306.421 377.196C304.055 378.556 299.688 381.863 296.1 383.8C296.467 386.977 299.614 388.478 300.942 391.01C305.71 402.246 303.106 412.017 306.364 423.554C307.91 425.588 317.031 426.319 319.72 426.511C322.814 426.083 328.52 424.206 332.258 422.207C332.252 422.484 335.638 421.604 337.333 420.889L388.94 409.039C403.536 409.186 418.141 409.34 431.921 408.485C439.725 410.288 448.391 412.491 447.893 410.426L446.44 406.266L448.18 404.561L461.253 407.653C463.416 405.42 457.56 401.971 447.893 397.946" fill="white"/>
<path d="M343.281 387.054C343.281 387.054 343.281 387.054 343.278 387.054C343.281 387.054 343.281 387.054 343.281 387.054ZM332.792 422.216V422.218V422.216ZM306.847 423.323C307.885 424.494 312.665 425.493 319.702 426.004C322.598 425.587 328.2 423.797 332 421.764C332.153 421.684 332.338 421.679 332.491 421.75C333.101 421.707 335.605 421.065 337.117 420.425C337.145 420.414 337.177 420.405 337.208 420.396L388.816 408.546C388.858 408.537 388.901 408.528 388.946 408.532L389.221 408.537C403.477 408.679 418.215 408.828 431.886 407.98C431.94 407.975 431.994 407.98 432.048 407.994L434.061 408.461C439.076 409.63 446.644 411.397 447.39 410.581C447.387 410.579 447.387 410.563 447.378 410.538L445.94 406.426C445.878 406.245 445.926 406.048 446.065 405.913L447.804 404.207C447.934 404.079 448.124 404.026 448.311 404.069L461.044 407.081C461.169 406.88 461.203 406.671 461.152 406.44C460.766 404.682 456.284 402 447.835 398.47C440.903 399.747 436.019 401.031 433.316 402.282C433.202 402.335 433.077 402.346 432.958 402.319C422.946 399.951 406.733 398.952 389.567 397.89L385.131 397.618L349.467 396.861C349.251 396.857 349.064 396.728 348.985 396.538C348.332 394.936 347.331 394.127 346.267 393.267C345.243 392.44 344.188 391.587 343.394 390.029C343.34 389.997 343.292 389.96 343.247 389.916C342.875 389.559 342.866 388.869 342.895 387.776C342.901 387.496 342.912 387.095 342.889 386.9C342.852 386.859 342.815 386.813 342.793 386.76L342.713 386.598C342.705 386.582 342.699 386.566 342.691 386.549C340.345 380.065 337.103 375.14 332.78 371.489C330.389 369.162 327.442 367.512 324.223 366.694C323.656 366.6 293.885 354.947 284.582 351.303L233.493 352.958L222.038 363.375L223.962 364.111L234.209 359.49C234.329 359.435 234.465 359.428 234.591 359.465L238.032 360.476L241.002 357.125C241.112 356.999 241.28 356.93 241.453 356.948L276.013 359.999C276.09 360.006 276.162 360.026 276.229 360.063L306.686 376.758C306.85 376.848 306.949 377.012 306.952 377.191C306.955 377.37 306.856 377.537 306.694 377.629C305.736 378.181 304.394 379.091 302.97 380.054C300.973 381.408 298.724 382.933 296.676 384.067C296.974 385.667 298.066 386.809 299.22 388.012C300.029 388.858 300.865 389.733 301.416 390.785C304.13 397.175 304.505 403.189 304.868 409.004C305.151 413.584 305.446 418.319 306.847 423.323V423.323ZM319.722 427.017C319.71 427.017 319.696 427.017 319.682 427.015C314.211 426.621 307.383 425.752 305.934 423.85C305.897 423.799 305.869 423.744 305.852 423.685C304.4 418.544 304.102 413.726 303.81 409.066C303.435 403.066 303.084 397.402 300.454 391.2C299.986 390.311 299.235 389.525 298.44 388.695C297.15 387.347 295.82 385.956 295.576 383.854C295.553 383.655 295.658 383.46 295.842 383.359C297.924 382.236 300.281 380.638 302.357 379.231C303.506 378.454 304.533 377.757 305.398 377.216L275.802 360.996L241.631 357.98L238.615 361.383C238.478 361.537 238.257 361.599 238.055 361.539L234.476 360.487L224.206 365.119C224.073 365.179 223.92 365.183 223.784 365.131L220.88 364.021C220.712 363.957 220.59 363.817 220.556 363.648C220.522 363.478 220.581 363.306 220.711 363.187L232.909 352.092C233.003 352.007 233.126 351.956 233.256 351.954L284.661 350.29C284.735 350.285 284.809 350.299 284.88 350.327C298.177 355.536 323.571 365.458 324.487 365.715C327.896 366.582 331.013 368.326 333.509 370.755C337.877 374.443 341.309 379.646 343.683 386.194C343.692 386.201 343.698 386.21 343.706 386.217C343.975 386.474 343.978 386.889 343.953 387.801C343.941 388.193 343.924 388.89 343.995 389.163C344.112 389.213 344.208 389.3 344.259 389.414C344.968 390.891 345.93 391.67 346.951 392.495C348.003 393.345 349.087 394.221 349.835 395.857L385.177 396.607L389.635 396.882C406.744 397.939 422.912 398.936 433.026 401.294C435.865 400.02 440.835 398.725 447.798 397.448C447.9 397.43 448.011 397.441 448.107 397.48C457.362 401.337 461.705 404.035 462.187 406.231C462.329 406.873 462.139 407.482 461.642 407.996C461.512 408.131 461.316 408.186 461.129 408.143L448.351 405.119L447.046 406.398L448.399 410.265C448.501 410.693 448.405 411.042 448.136 411.296C446.93 412.431 441.907 411.331 433.809 409.442L431.875 408.993C418.186 409.839 403.457 409.69 389.21 409.548L389 409.545L337.503 421.37C336.808 421.652 333.563 422.782 332.346 422.738C328.421 424.801 322.725 426.605 319.798 427.013C319.773 427.015 319.75 427.017 319.722 427.017" fill="black"/>
<path d="M338.549 377.144L329.984 385.464C325.872 393.146 322.16 400.531 322.664 404.744C326.856 407.194 331.656 409.255 338.696 409.871L351.183 405.434L348.706 398.093L351.368 397.105L354.111 401.558C354.876 402.803 356.432 403.396 357.881 402.986C363.742 401.322 369.55 399.22 375.034 394.542C376.522 390.43 375.106 386.264 371.081 382.044C370.44 381.372 369.519 380.992 368.566 381.024C362.811 381.214 358.834 383.726 355.539 387.128L345.005 387.263C344.381 387.272 343.81 386.926 343.548 386.383L338.549 377.144Z" fill="white"/>
<path d="M338.696 410.375C338.679 410.375 338.662 410.375 338.648 410.375C331.013 409.706 326.144 407.371 322.385 405.175C322.248 405.095 322.155 404.955 322.136 404.801C321.615 400.433 325.328 393.053 329.511 385.234C329.537 385.189 329.568 385.145 329.607 385.111L338.172 376.788C338.292 376.674 338.463 376.619 338.628 376.644C338.796 376.669 338.943 376.768 339.02 376.912L344.019 386.151C344.204 386.534 344.597 386.743 344.998 386.759L355.306 386.626C359.235 382.628 363.449 380.687 368.549 380.52C369.663 380.481 370.721 380.914 371.473 381.705C375.689 386.124 377.057 390.499 375.536 394.707C375.507 394.79 375.454 394.863 375.387 394.921C369.783 399.697 363.735 401.854 358.03 403.47C356.348 403.946 354.548 403.268 353.655 401.815L351.14 397.733L348.898 398.562C348.627 398.666 348.32 398.535 348.214 398.276C348.108 398.015 348.243 397.721 348.516 397.623L351.176 396.635C351.418 396.543 351.692 396.635 351.824 396.85L354.567 401.301C355.212 402.353 356.516 402.849 357.73 402.502C364.141 400.683 369.466 398.581 374.578 394.254C375.913 390.408 374.641 386.525 370.69 382.386C370.148 381.815 369.387 381.508 368.585 381.528C363.718 381.691 359.696 383.577 355.928 387.471C355.829 387.572 355.693 387.632 355.546 387.634L345.012 387.769C344.196 387.795 343.414 387.318 343.068 386.594L338.415 377.996L330.418 385.764C326.564 392.968 322.851 400.323 323.165 404.444C326.768 406.529 331.426 408.707 338.624 409.358L350.856 405.01C351.13 404.911 351.435 405.047 351.538 405.308C351.639 405.569 351.5 405.86 351.226 405.959L338.88 410.346C338.82 410.366 338.758 410.375 338.696 410.375Z" fill="black"/>
<path d="M363.867 384.953C363.675 384.953 363.488 384.852 363.394 384.678L358.071 374.785C357.936 374.538 358.04 374.233 358.299 374.105C358.558 373.979 358.877 374.075 359.012 374.325L364.337 384.217C364.469 384.464 364.368 384.769 364.107 384.898C364.03 384.934 363.948 384.953 363.867 384.953Z" fill="white"/>
<path d="M367.448 393.735C367.27 393.735 367.097 393.651 366.997 393.495L365.835 391.693C365.681 391.455 365.758 391.143 366.008 390.996C366.257 390.85 366.584 390.923 366.737 391.161L367.899 392.965C368.05 393.201 367.973 393.513 367.724 393.66C367.637 393.71 367.541 393.735 367.448 393.735" fill="black"/>
<path d="M367.417 387.792C367.781 389.855 367.498 391.233 366.286 391.427C365.074 391.622 363.389 390.563 363.025 388.498C362.66 386.433 363.349 384.602 364.561 384.407C365.773 384.212 367.052 385.727 367.417 387.792" fill="black"/>
<path d="M370.781 394.751C371.787 396.612 371.715 398.556 370.623 399.094C369.528 399.633 367.829 398.56 366.824 396.701C365.818 394.84 366.644 393.584 367.738 393.046C368.83 392.507 369.776 392.89 370.781 394.751Z" fill="black"/>
<path d="M322.373 403.912C324.183 396.986 326.581 391.024 330.742 383.942C321.658 380.774 313.416 377.753 304.851 377.653L300.08 381.329L280.397 389.846C278.667 390.595 276.706 390.692 274.906 390.119L269.576 388.423C260.295 383.807 253.527 380.256 242.165 382.667C234.194 384.357 227.353 389.145 223.388 395.961C221.097 399.901 219.21 404.389 216.332 409.502C216.332 409.502 227.038 417.6 227.949 426.511C242.057 431.831 268.851 425.778 277.32 424.292L312.344 424.785C312.353 425.042 312.37 425.301 312.377 425.558L323.936 425.808C327.581 425.335 330.565 423.731 332.95 421.104L339.581 408.899C332.54 407.857 327.898 406.871 322.373 403.912" fill="black"/>
<path d="M205.683 438.531L171.582 424.471L227.459 395.975C234.821 392.221 244.025 394.283 248.724 400.868C256.685 412.019 258.519 428.068 242.662 429.842L205.683 438.531Z" fill="white"/>
<path d="M172.8 424.423L205.729 437.999L242.537 429.349C242.559 429.344 242.58 429.342 242.602 429.339C247.767 428.762 251.259 426.635 252.987 423.02C255.603 417.542 253.714 408.755 248.288 401.155C243.744 394.79 234.897 392.754 227.708 396.419L172.8 424.423ZM205.683 439.037C205.611 439.037 205.54 439.023 205.473 438.993L171.372 424.936C171.185 424.859 171.061 424.687 171.053 424.492C171.045 424.299 171.153 424.116 171.332 424.027L227.209 395.528C234.876 391.618 244.313 393.793 249.164 400.584C253.846 407.146 257.141 416.756 253.949 423.44C252.089 427.336 248.22 429.72 242.758 430.339L205.809 439.021C205.767 439.03 205.725 439.037 205.683 439.037" fill="black"/>
<path d="M153.988 412.645C165.842 408.679 167.399 410.391 173.155 409.871C187.705 408.553 209.374 412.83 216.719 413.754C219.642 414.121 229.172 413.736 248.084 413.199C296.928 411.813 302.631 410.909 315.444 413.527C320.434 414.545 325.93 415.979 335.146 417.061C346.894 418.436 356.629 418.292 362.974 417.962C365.144 422.475 367.311 426.99 369.481 431.505C300.31 457.866 246.31 457.054 213.815 453.137C173.065 448.226 128.66 433.912 129.592 425.402C130.116 420.628 139.672 417.433 153.988 412.645Z" fill="#335BEA"/>
<path d="M374.9 444.554C374.897 444.554 374.895 444.554 374.893 444.554L333.286 444.02C332.993 444.015 332.76 443.786 332.763 443.506C332.768 443.227 333 442.988 333.3 443.009L374.907 443.543C375.2 443.547 375.433 443.777 375.43 444.056C375.425 444.331 375.19 444.554 374.9 444.554Z" fill="black"/>
<path d="M389.456 453.651C389.451 453.651 389.446 453.651 389.441 453.651L369.065 453.147C368.773 453.14 368.542 452.908 368.549 452.629C368.557 452.349 368.794 452.131 369.092 452.136L389.468 452.64C389.761 452.649 389.991 452.881 389.984 453.16C389.977 453.433 389.741 453.651 389.456 453.651" fill="black"/>
<path d="M456.673 361.156H428.093C427.799 361.156 427.563 360.929 427.563 360.65C427.563 360.37 427.799 360.145 428.093 360.145H456.673C456.964 360.145 457.2 360.37 457.2 360.65C457.2 360.929 456.964 361.156 456.673 361.156Z" fill="black"/>
<path d="M184.633 378.847H156.053C155.761 378.847 155.524 378.62 155.524 378.342C155.524 378.063 155.761 377.836 156.053 377.836H184.633C184.925 377.836 185.162 378.063 185.162 378.342C185.162 378.62 184.925 378.847 184.633 378.847Z" fill="black"/>
<path d="M167.167 373.286H138.588C138.295 373.286 138.058 373.062 138.058 372.782C138.058 372.503 138.295 372.276 138.588 372.276H167.167C167.46 372.276 167.697 372.503 167.697 372.782C167.697 373.062 167.46 373.286 167.167 373.286Z" fill="black"/>
<path d="M251.583 467.286H209.699C209.407 467.286 209.17 467.059 209.17 466.779C209.17 466.502 209.407 466.275 209.699 466.275H251.583C251.876 466.275 252.111 466.502 252.111 466.779C252.111 467.059 251.876 467.286 251.583 467.286Z" fill="black"/>
<path d="M225.987 459.138H184.104C183.811 459.138 183.574 458.913 183.574 458.634C183.574 458.354 183.811 458.127 184.104 458.127H225.987C226.28 458.127 226.516 458.354 226.516 458.634C226.516 458.913 226.28 459.138 225.987 459.138Z" fill="black"/>
<path d="M448.211 229.949C448.211 229.949 448.211 245.091 458.273 253.568C459.394 254.513 459.902 255.954 460.119 257.369C460.524 260.01 462.432 264.428 465.558 270.567C468.684 276.695 469.06 300.043 469.06 300.043L476.636 298.732C476.636 298.732 477.517 289.836 477.954 279.341C478.45 267.422 476.783 252.817 470.284 248.01C466.809 245.439 467.299 228.684 467.299 228.684L448.211 229.949" fill="white"/>
<path d="M448.754 230.417C448.862 233.024 449.847 245.793 458.622 253.189C459.686 254.084 460.364 255.464 460.647 257.294C461.014 259.701 462.727 263.851 466.038 270.346C468.935 276.025 469.499 295.674 469.581 299.44L476.147 298.303C476.318 296.492 477.046 288.468 477.425 279.319C477.922 267.411 476.221 253.04 469.963 248.411C466.625 245.941 466.693 232.496 466.757 229.228L448.754 230.417ZM469.064 300.549C468.94 300.549 468.823 300.508 468.726 300.434C468.605 300.34 468.538 300.201 468.535 300.052C468.529 299.818 468.121 276.743 465.086 270.786C461.681 264.103 459.988 259.987 459.598 257.442C459.354 255.854 458.793 254.679 457.923 253.949C447.799 245.417 447.681 230.103 447.681 229.949C447.681 229.682 447.896 229.463 448.175 229.444L467.266 228.178C467.416 228.175 467.56 228.22 467.668 228.319C467.777 228.417 467.833 228.554 467.833 228.697C467.698 233.288 467.933 245.63 470.612 247.611C478.888 253.733 478.73 273.46 478.483 279.358C478.051 289.748 477.173 298.69 477.164 298.779C477.14 299.004 476.967 299.19 476.732 299.229L469.158 300.54C469.128 300.547 469.093 300.549 469.064 300.549Z" fill="black"/>
<path d="M462.143 255.569C461.85 255.569 461.612 255.344 461.612 255.064C461.612 254.785 461.85 254.558 462.143 254.558C466.481 254.558 466.601 251.804 466.604 251.686C466.61 251.412 466.845 251.196 467.132 251.196C467.135 251.196 467.141 251.196 467.146 251.196C467.436 251.201 467.668 251.434 467.663 251.713C467.66 251.752 467.502 255.569 462.143 255.569" fill="black"/>
<path d="M468.626 314.945C471.333 315.31 475.774 315.633 480.983 314.939C482.687 314.711 483.817 313.121 483.408 311.514C482.259 307.033 480.285 298.528 476.89 294.588L476.05 296.724L474.886 294.711C474.723 294.436 474.438 294.251 474.114 294.212L471.562 293.9C471.03 293.836 470.535 294.175 470.425 294.679L470.021 296.534L468.466 294.102L467.777 303.18C467.626 305.126 467.323 307.059 466.86 308.956L466.166 311.819C465.958 313.334 467.053 314.732 468.626 314.945" fill="white"/>
<path d="M468.875 295.71L468.304 303.217C468.156 305.183 467.844 307.152 467.378 309.071L466.683 311.933C466.522 313.123 467.422 314.271 468.699 314.443C471.453 314.817 475.807 315.117 480.91 314.438C481.573 314.349 482.173 313.994 482.547 313.462C482.927 312.928 483.055 312.261 482.894 311.633L482.648 310.661C481.567 306.393 479.805 299.43 477.046 295.626L476.544 296.902C476.473 297.088 476.294 297.214 476.086 297.228C475.879 297.244 475.685 297.141 475.584 296.969L474.423 294.956C474.346 294.823 474.203 294.732 474.046 294.711L471.497 294.402C471.239 294.372 470.995 294.537 470.945 294.782L470.538 296.636C470.496 296.838 470.324 296.996 470.11 297.031C469.896 297.065 469.683 296.973 469.57 296.797L468.875 295.71ZM474.762 315.852C472.273 315.852 470.149 315.66 468.551 315.445C466.703 315.195 465.396 313.54 465.64 311.754L466.347 308.841C466.798 306.976 467.101 305.057 467.247 303.143L467.939 294.067C467.957 293.847 468.117 293.664 468.343 293.611C468.566 293.558 468.797 293.652 468.919 293.84L469.775 295.181L469.908 294.576C470.072 293.817 470.835 293.301 471.631 293.398L474.18 293.709C474.673 293.769 475.109 294.053 475.347 294.468L475.959 295.52L476.398 294.409C476.461 294.241 476.618 294.118 476.805 294.09C476.989 294.06 477.18 294.127 477.298 294.266C480.539 298.028 482.502 305.788 483.676 310.425L483.922 311.395C484.154 312.3 483.973 313.26 483.423 314.03C482.879 314.798 482.015 315.311 481.059 315.438C478.792 315.74 476.672 315.852 474.762 315.852" fill="black"/>
<path d="M482.989 309.866C483.138 310.458 483.28 311.012 483.408 311.514C483.817 313.121 482.687 314.711 480.983 314.939C475.774 315.633 471.333 315.31 468.626 314.945C467.053 314.732 465.958 313.334 466.166 311.819L466.537 310.295C470.621 311.306 477.017 312.151 482.989 309.866" fill="white"/>
<path d="M466.932 310.909L466.683 311.933C466.522 313.123 467.422 314.271 468.699 314.443C471.456 314.817 475.81 315.117 480.91 314.438C481.573 314.349 482.173 313.994 482.547 313.462C482.927 312.928 483.055 312.261 482.894 311.633L482.618 310.544C476.992 312.511 471.099 311.878 466.932 310.909V310.909ZM474.768 315.852C472.276 315.852 470.152 315.66 468.551 315.445C466.703 315.195 465.396 313.54 465.64 311.754L466.02 310.18C466.053 310.047 466.139 309.932 466.261 309.861C466.386 309.79 466.531 309.77 466.671 309.804C470.841 310.835 477.025 311.605 482.793 309.398C482.936 309.343 483.096 309.35 483.233 309.416C483.37 309.485 483.468 309.605 483.503 309.747L483.922 311.395C484.154 312.3 483.973 313.26 483.423 314.03C482.879 314.798 482.015 315.311 481.059 315.438C478.795 315.74 476.672 315.852 474.768 315.852" fill="black"/>
<path d="M477.264 306.849C477.255 306.849 477.25 306.849 477.244 306.849L471.158 306.657C470.865 306.647 470.637 306.414 470.645 306.134C470.657 305.854 470.903 305.621 471.194 305.646L477.279 305.838C477.572 305.848 477.801 306.081 477.792 306.361C477.78 306.634 477.546 306.849 477.264 306.849" fill="black"/>
<path d="M476.636 303.452C476.63 303.452 476.621 303.452 476.616 303.452L470.963 303.259C470.67 303.25 470.442 303.016 470.453 302.737C470.465 302.457 470.699 302.221 471.001 302.249L476.654 302.441C476.946 302.453 477.175 302.686 477.166 302.966C477.154 303.239 476.917 303.452 476.636 303.452Z" fill="black"/>
<path d="M476.008 300.305C476.002 300.305 475.993 300.305 475.987 300.305L470.766 300.11C470.476 300.101 470.248 299.865 470.26 299.585C470.272 299.308 470.517 299.081 470.807 299.101L476.028 299.294C476.321 299.306 476.549 299.539 476.537 299.819C476.525 300.092 476.288 300.305 476.008 300.305Z" fill="black"/>
<path d="M416.474 218.072C416.474 218.072 417.444 240.997 418.32 245.259C420.164 254.233 415.133 251.025 422.011 271.537C428.892 292.045 425.364 300.217 425.364 300.217L437.111 297.012C437.111 297.012 432.079 276.022 433.755 267.37C435.074 260.571 434.217 254.168 432.569 249.171C431.601 246.238 431.438 243.114 432.009 240.085C433.407 232.693 436.184 220.02 439.124 218.072C443.32 215.296 416.474 218.072 416.474 218.072" fill="white"/>
<path d="M417.025 218.525C417.171 221.821 418.051 241.322 418.84 245.16C419.523 248.477 419.288 250.168 419.04 251.964C418.624 254.968 418.151 258.373 422.515 271.379C428.171 288.239 426.874 296.797 426.161 299.474L436.486 296.658C435.735 293.431 431.676 275.318 433.237 267.279C434.69 259.781 433.402 253.377 432.065 249.325C431.093 246.377 430.893 243.151 431.49 239.996C433.21 230.882 435.881 219.606 438.822 217.656C438.846 217.64 438.868 217.627 438.887 217.612C437.042 216.97 426.693 217.542 417.025 218.525V218.525ZM425.367 300.722C425.219 300.722 425.073 300.663 424.973 300.552C424.838 300.408 424.8 300.201 424.879 300.023C424.914 299.943 428.225 291.716 421.508 271.689C417.071 258.466 417.56 254.94 417.992 251.829C418.227 250.122 418.448 248.508 417.8 245.356C416.928 241.103 415.988 219.03 415.947 218.092C415.934 217.826 416.142 217.599 416.42 217.571C416.474 217.563 422.094 216.985 427.728 216.624C439.495 215.868 439.84 216.763 440.048 217.295C440.21 217.707 440.002 218.107 439.427 218.489C437.393 219.835 434.879 227.74 432.53 240.174C431.965 243.171 432.154 246.228 433.072 249.021C434.447 253.181 435.77 259.76 434.277 267.462C432.638 275.911 437.577 296.689 437.628 296.897C437.691 297.16 437.526 297.424 437.258 297.498L425.513 300.702C425.465 300.717 425.416 300.722 425.367 300.722" fill="black"/>
<path d="M424.222 252.282C423.12 252.282 421.933 251.919 420.949 250.828C420.761 250.617 420.787 250.294 421.007 250.114C421.23 249.934 421.563 249.956 421.754 250.169C423.674 252.308 426.393 250.717 426.508 250.647C426.757 250.5 427.085 250.572 427.24 250.81C427.394 251.045 427.321 251.356 427.069 251.506C426.437 251.884 425.375 252.282 424.222 252.282Z" fill="black"/>
<path d="M437.184 290.987C437.184 290.987 437.325 295.686 439.325 298.911C441.323 302.135 442.389 304.312 439.805 306.126C438.334 307.166 434.831 308.288 432.095 309.063C430.021 309.651 428.13 310.686 426.49 312.031C424.061 314.027 419.23 316.535 411.471 314.584C401.643 312.116 412.377 305.605 416.489 303.379C417.472 302.845 418.329 302.119 418.997 301.246L425.893 292.174C425.893 292.174 429.538 297.122 432.505 296.624C436.326 295.982 437.184 290.987 437.184 290.987" fill="white"/>
<path d="M425.903 293.024L419.425 301.54C418.715 302.475 417.815 303.241 416.749 303.818C411.01 306.926 407.739 309.885 407.986 311.726C408.125 312.728 409.343 313.526 411.606 314.095C418.924 315.931 423.55 313.779 426.145 311.648C427.904 310.204 429.857 309.17 431.946 308.578C435.764 307.498 438.372 306.508 439.495 305.719C441.654 304.199 440.926 302.477 438.87 299.166C437.749 297.358 437.192 295.138 436.92 293.468C436.202 294.987 434.894 296.735 432.596 297.119C429.955 297.561 427.001 294.361 425.903 293.024V293.024ZM416.809 315.786C415.171 315.786 413.349 315.578 411.337 315.071C408.617 314.388 407.135 313.306 406.939 311.858C406.51 308.711 412.574 304.919 416.229 302.94C417.159 302.433 417.948 301.763 418.568 300.945L425.468 291.876C425.568 291.746 425.726 291.668 425.897 291.668C426.071 291.671 426.229 291.751 426.327 291.883C427.29 293.185 430.254 296.491 432.413 296.125C435.826 295.553 436.656 290.951 436.661 290.904C436.705 290.647 436.95 290.468 437.219 290.484C437.494 290.499 437.706 290.712 437.714 290.972C437.717 291.016 437.877 295.582 439.783 298.652C441.505 301.431 443.289 304.308 440.121 306.534C438.886 307.404 436.234 308.417 432.248 309.547C430.303 310.098 428.481 311.061 426.836 312.414C425.117 313.827 421.823 315.786 416.809 315.786" fill="black"/>
<path d="M439.809 306.126C442.076 304.533 441.531 302.658 440.01 300.042C438.545 301.355 436.411 303.015 432.73 304.696C430.78 305.587 428.955 306.712 427.293 308.032C424.488 310.263 419.823 312.057 415.771 311.884C410.805 311.669 409.875 310.397 408.525 309.159C406.474 311.343 407.299 313.536 411.473 314.583C419.232 316.534 424.062 314.026 426.49 312.029C428.131 310.685 430.024 309.651 432.098 309.063C434.832 308.286 438.334 307.165 439.809 306.126Z" fill="white"/>
<path d="M439.809 306.127H439.814H439.809ZM408.571 309.908C408.155 310.458 407.832 311.151 408.049 311.846C408.348 312.796 409.609 313.593 411.606 314.094C418.921 315.93 423.551 313.778 426.146 311.647C427.904 310.204 429.855 309.168 431.948 308.577C435.763 307.497 438.371 306.508 439.493 305.72C441.102 304.588 441.222 303.363 439.866 300.857C438.507 302.017 436.39 303.584 432.958 305.151C431.059 306.021 429.266 307.121 427.633 308.418C424.486 310.923 419.6 312.56 415.75 312.386C411.106 312.186 409.775 311.042 408.571 309.908ZM416.81 315.786C415.171 315.786 413.348 315.577 411.337 315.071C408.305 314.31 407.326 313.053 407.036 312.137C406.805 311.403 406.81 310.23 408.131 308.821C408.228 308.719 408.362 308.657 408.506 308.655C408.644 308.644 408.788 308.699 408.891 308.792C409.003 308.893 409.112 308.997 409.218 309.098C410.359 310.173 411.438 311.187 415.796 311.377C419.399 311.538 423.994 309.999 426.956 307.642C428.657 306.29 430.524 305.143 432.505 304.238C436.216 302.541 438.273 300.908 439.648 299.673C439.768 299.567 439.931 299.52 440.091 299.543C440.254 299.567 440.396 299.663 440.474 299.798C441.828 302.128 442.917 304.567 440.121 306.534C438.885 307.404 436.235 308.418 432.246 309.547C430.304 310.097 428.48 311.063 426.836 312.415C425.116 313.826 421.823 315.786 416.81 315.786" fill="black"/>
<path d="M422.803 305.607C422.709 305.607 422.616 305.585 422.53 305.538L419.486 303.782C419.236 303.638 419.156 303.328 419.307 303.087C419.457 302.849 419.784 302.772 420.034 302.916L423.076 304.67C423.33 304.816 423.408 305.124 423.257 305.364C423.159 305.521 422.982 305.607 422.803 305.607" fill="black"/>
<path d="M425.056 303.154C424.964 303.154 424.87 303.132 424.784 303.079L421.739 301.326C421.488 301.182 421.408 300.87 421.559 300.633C421.71 300.394 422.034 300.316 422.285 300.461L425.33 302.214C425.581 302.359 425.661 302.67 425.51 302.907C425.408 303.067 425.233 303.154 425.056 303.154Z" fill="black"/>
<path d="M426.851 300.118C426.762 300.118 426.665 300.09 426.581 300.043L423.536 298.29C423.285 298.147 423.206 297.834 423.358 297.596C423.508 297.356 423.833 297.28 424.082 297.423L427.129 299.176C427.378 299.322 427.457 299.632 427.305 299.872C427.208 300.03 427.032 300.118 426.851 300.118" fill="black"/>
<path d="M469.155 209.742C469.155 198.926 463.871 187.871 463.871 187.871L423.457 184.504C423.457 184.504 419.074 193.397 416.305 202.291C413.539 211.184 414.795 228.168 414.795 228.168C414.795 228.168 439.041 234.369 439.962 228.441C439.985 228.297 441.221 213.346 441.221 213.346C442.229 219.115 443.586 231.198 443.586 231.198C465.078 235.831 470.665 228.97 470.665 228.97C470.665 228.97 469.155 220.557 469.155 209.742Z" fill="black"/>
<path d="M466.585 226.677C466.327 226.677 466.1 226.496 466.063 226.242C465.676 223.639 464.782 216.687 464.782 208.408C464.782 205.34 464.346 201.948 463.492 198.33C463.426 198.059 463.607 197.788 463.894 197.728C464.177 197.665 464.458 197.837 464.524 198.108C465.398 201.801 465.84 205.266 465.84 208.408C465.84 216.624 466.728 223.519 467.112 226.102C467.152 226.379 466.952 226.633 466.659 226.672C466.636 226.677 466.611 226.677 466.585 226.677" fill="white"/>
<path d="M430.357 142.602C430.206 140.209 429.796 137.847 429.058 135.556C425.198 123.555 433.63 113.603 433.63 113.603C433.589 113.764 419.901 120.753 417.986 124.66C415.757 129.203 415.811 131.74 416.168 134.671C416.398 136.573 417.829 138.492 417.646 140.398C417.534 141.579 417.419 143.024 417.36 144.546C421.108 142.303 425.712 142.261 430.357 142.602" fill="white"/>
<path d="M431.858 115.2C428.117 117.293 419.85 122.051 418.464 124.875C416.272 129.342 416.355 131.828 416.691 134.613C416.783 135.364 417.082 136.126 417.392 136.933C417.835 138.067 418.29 139.238 418.172 140.446C418.065 141.538 417.986 142.613 417.929 143.651C421.505 141.859 425.706 141.786 429.787 142.057C429.604 139.822 429.19 137.686 428.552 135.705C425.647 126.678 429.612 118.718 431.858 115.2ZM417.359 145.051C417.268 145.051 417.176 145.028 417.093 144.983C416.925 144.89 416.821 144.715 416.827 144.526C416.881 143.191 416.981 141.789 417.12 140.352C417.212 139.373 416.819 138.358 416.402 137.285C416.08 136.458 415.746 135.601 415.64 134.732C415.282 131.783 415.193 129.156 417.504 124.446C418.975 121.447 426.572 116.969 432.159 113.862C432.668 113.58 433.143 113.315 433.267 113.233C433.43 113.092 433.666 113.058 433.867 113.151C434.086 113.258 434.201 113.495 434.142 113.727C434.118 113.817 434.103 113.873 434.018 113.952C433.524 114.556 425.937 124.133 429.562 135.406C430.28 137.638 430.723 140.048 430.886 142.573C430.895 142.717 430.839 142.861 430.729 142.963C430.62 143.064 430.469 143.118 430.316 143.107C425.898 142.782 421.304 142.782 417.64 144.974C417.554 145.025 417.457 145.051 417.359 145.051Z" fill="black"/>
<path d="M430.356 142.603C425.71 142.262 421.106 142.307 417.357 144.548C417.24 147.476 417.321 150.689 417.985 152.861C419.493 157.829 412.525 177.059 412.525 177.059C411.493 179.168 409.908 182.313 409.246 183.008C408.46 183.835 407.55 184.881 406.853 185.769C403.031 190.631 415.818 200.853 415.818 200.853L415.575 196.17C415.652 194.852 411.507 192.13 412.697 191.458C412.788 191.406 413.784 193.158 413.859 193.126C414.75 192.753 414.861 191.007 415.724 191.437L417.711 192.426C417.711 192.426 419.523 188.168 416.878 183.74C416.192 182.585 431.563 161.679 430.356 142.603" fill="white"/>
<path d="M417.875 144.838C417.753 148.323 417.961 150.973 418.49 152.72C420.03 157.783 413.309 176.435 413.024 177.226C413.016 177.242 413.01 177.258 413.002 177.274C411.32 180.724 410.187 182.769 409.639 183.348C408.852 184.174 407.946 185.219 407.276 186.073C404.622 189.449 411.428 196.439 415.229 199.693L415.046 196.195C415.044 196.177 415.044 196.161 415.046 196.142C415.069 195.746 414.146 194.775 413.537 194.134C412.492 193.034 411.858 192.325 411.963 191.661C412.005 191.393 412.171 191.169 412.428 191.023C412.93 190.74 413.149 191.087 413.794 192.113C413.844 192.195 413.902 192.285 413.958 192.372C414.06 192.232 414.154 192.06 414.246 191.901C414.514 191.417 415.019 190.515 415.969 190.989L417.398 191.7C417.756 190.462 418.368 187.256 416.418 183.991C416.124 183.496 416.423 182.872 418.423 179.221C422.374 172.009 430.549 157.082 429.851 143.076C425.67 142.79 421.374 142.857 417.875 144.838V144.838ZM415.819 201.357C415.697 201.357 415.575 201.317 415.479 201.241C414.941 200.809 402.356 190.65 406.431 185.467C407.132 184.573 408.035 183.528 408.855 182.668C409.312 182.187 410.47 180.075 412.032 176.869C412.312 176.091 418.897 157.683 417.476 153.003C416.897 151.106 416.681 148.254 416.828 144.529C416.833 144.362 416.927 144.209 417.077 144.119C421 141.772 425.798 141.761 430.397 142.1C430.66 142.118 430.868 142.322 430.884 142.574C431.796 156.987 423.399 172.321 419.362 179.689C418.396 181.449 417.487 183.113 417.393 183.581C420.052 188.139 418.279 192.433 418.199 192.616C418.144 192.748 418.033 192.851 417.891 192.901C417.753 192.949 417.598 192.941 417.465 192.875L415.49 191.891C415.401 191.981 415.268 192.216 415.179 192.378C414.974 192.743 414.728 193.185 414.321 193.454C415.251 194.433 416.13 195.357 416.105 196.169L416.346 200.828C416.359 201.026 416.243 201.214 416.055 201.304C415.98 201.341 415.897 201.357 415.819 201.357" fill="black"/>
<path d="M430.357 142.602C430.206 140.209 429.796 137.847 429.058 135.556C425.198 123.555 433.63 113.603 433.63 113.603C433.589 113.764 419.901 120.753 417.986 124.66C415.757 129.203 415.811 131.74 416.168 134.671C416.398 136.573 417.829 138.492 417.646 140.398C417.534 141.579 417.419 143.024 417.36 144.546C421.108 142.303 425.712 142.261 430.357 142.602" fill="white"/>
<path d="M431.858 115.2C428.117 117.293 419.85 122.051 418.464 124.875C416.272 129.342 416.355 131.828 416.691 134.613C416.783 135.364 417.082 136.126 417.392 136.933C417.835 138.067 418.29 139.238 418.172 140.446C418.065 141.538 417.986 142.613 417.929 143.651C421.505 141.859 425.706 141.786 429.787 142.057C429.604 139.822 429.19 137.686 428.552 135.705C425.647 126.678 429.612 118.718 431.858 115.2ZM417.359 145.051C417.268 145.051 417.176 145.028 417.093 144.983C416.925 144.89 416.821 144.715 416.827 144.526C416.881 143.191 416.981 141.789 417.12 140.352C417.212 139.373 416.819 138.358 416.402 137.285C416.08 136.458 415.746 135.601 415.64 134.732C415.282 131.783 415.193 129.156 417.504 124.446C418.975 121.447 426.572 116.969 432.159 113.862C432.668 113.58 433.143 113.315 433.267 113.233C433.43 113.092 433.666 113.058 433.867 113.151C434.086 113.258 434.201 113.495 434.142 113.727C434.118 113.817 434.103 113.873 434.018 113.952C433.524 114.556 425.937 124.133 429.562 135.406C430.28 137.638 430.723 140.048 430.886 142.573C430.895 142.717 430.839 142.861 430.729 142.963C430.62 143.064 430.469 143.118 430.316 143.107C425.898 142.782 421.304 142.782 417.64 144.974C417.554 145.025 417.457 145.051 417.359 145.051Z" fill="black"/>
<path d="M443.893 108.803C443.893 108.803 449.007 112.678 453.221 114.774C457.515 116.91 463.109 118.078 463.109 118.078C463.109 118.078 467.758 150.105 463.482 170.931C462.864 173.947 463.097 177.062 464.093 179.984C465.247 183.376 466.556 188.072 466.586 191.957C466.64 198.928 420.582 189.795 420.582 189.795C420.582 189.795 424.906 174.739 424.879 163.116C424.847 151.899 420.988 144.158 420.582 140.043C419.44 128.461 426.517 119.374 430.071 116.492C433.626 113.607 443.893 108.803 443.893 108.803Z" fill="#DA620C"/>
<path d="M421.24 189.405C432.603 191.626 461.162 196.288 465.581 192.829C465.909 192.573 466.062 192.296 466.059 191.96C466.032 188.102 464.7 183.403 463.59 180.142C462.557 177.099 462.339 173.88 462.963 170.833C466.936 151.479 463.115 122.009 462.631 118.491C461.309 118.192 456.705 117.077 452.976 115.221C449.265 113.376 444.945 110.223 443.832 109.396C442.124 110.206 433.544 114.337 430.418 116.874C427.435 119.295 419.945 128.168 421.112 139.994C421.243 141.312 421.739 143.02 422.369 145.181C423.644 149.552 425.39 155.542 425.408 163.115C425.438 173.459 421.993 186.642 421.24 189.405ZM457.917 195.062C444.742 195.062 421.73 190.537 420.476 190.289C420.336 190.26 420.21 190.175 420.133 190.058C420.055 189.938 420.034 189.793 420.073 189.659C420.115 189.511 424.381 174.533 424.351 163.117C424.33 155.679 422.608 149.768 421.351 145.452C420.703 143.242 420.195 141.497 420.058 140.089C418.849 127.831 426.629 118.619 429.731 116.105C433.296 113.211 443.24 108.543 443.661 108.347C443.844 108.261 444.064 108.284 444.226 108.406C444.273 108.443 449.346 112.275 453.466 114.325C457.649 116.407 463.169 117.573 463.222 117.584C463.437 117.627 463.605 117.798 463.634 118.006C463.682 118.328 468.247 150.358 464.002 171.026C463.414 173.906 463.62 176.948 464.599 179.828C465.73 183.158 467.089 187.965 467.119 191.954C467.122 192.601 466.832 193.16 466.253 193.611C464.918 194.657 461.855 195.062 457.917 195.062" fill="black"/>
<path d="M433.715 136.043C433.556 136.043 433.396 135.972 433.293 135.843C428.996 130.453 427.522 125.11 428.038 116.781C428.056 116.503 428.309 116.294 428.598 116.306C428.893 116.323 429.111 116.562 429.096 116.84C428.604 124.823 429.898 129.766 433.865 134.886C442.088 130.543 448.095 124.072 452.743 114.561C452.864 114.307 453.182 114.197 453.444 114.316C453.713 114.434 453.825 114.732 453.704 114.986C448.882 124.86 442.61 131.533 433.965 135.984C433.886 136.023 433.8 136.043 433.715 136.043" fill="black"/>
<path d="M433.713 140.807C435.561 139.115 435.956 136.267 435.795 134.019L433.834 133.785L429.67 139.638L433.713 140.807" fill="white"/>
<path d="M430.512 139.353L433.56 140.236C435.184 138.544 435.34 135.892 435.289 134.468L434.091 134.325L430.512 139.353ZM433.713 141.312C433.662 141.312 433.611 141.307 433.56 141.29L429.515 140.12C429.354 140.074 429.227 139.958 429.17 139.804C429.114 139.653 429.136 139.486 429.229 139.353L433.399 133.499C433.509 133.343 433.707 133.262 433.902 133.283L435.862 133.515C436.114 133.548 436.309 133.742 436.326 133.985C436.427 135.431 436.416 139.03 434.077 141.172C433.981 141.263 433.848 141.312 433.713 141.312" fill="black"/>
<path d="M473.672 131.982C471.659 118.525 462.347 117.788 462.347 117.788C462.347 117.788 463.915 125.661 459.831 135.588C455.266 146.684 461.34 151.692 461.34 151.692C452.767 151.482 438.161 144.036 435.342 142.558C435.012 142.387 434.691 142.195 434.385 141.985C433.202 141.181 432.711 140.711 431.68 139.458C430.968 138.587 428.42 135.18 423.796 136.465C420.303 137.437 420.223 139.154 421.227 139.84C422.03 140.391 424.017 139.478 422.442 140.189C420.329 141.139 418.298 143.348 418.928 146.049C419.77 149.66 426.345 145.225 428.699 146.482C429.005 146.645 430.798 147.507 432.401 148.278C432.513 148.331 432.622 148.373 432.737 148.412C432.763 148.435 465.119 172.839 472.415 168.033C479.714 163.227 475.688 145.442 473.672 131.982" fill="white"/>
<path d="M427.575 145.744C428.093 145.744 428.56 145.829 428.957 146.042C429.196 146.168 430.504 146.803 432.639 147.826C432.731 147.87 432.825 147.907 432.922 147.941C432.972 147.96 433.019 147.986 433.063 148.016C441.989 154.746 466.402 171.379 472.113 167.618C478.23 163.59 475.966 149.601 473.969 137.259C473.684 135.479 473.398 133.735 473.148 132.055C471.534 121.256 465.096 118.9 462.981 118.411C463.267 120.59 463.758 127.427 460.323 135.774C455.964 146.371 461.452 151.114 461.687 151.311C461.855 151.451 461.914 151.676 461.834 151.876C461.752 152.072 461.558 152.187 461.326 152.196C452.635 151.985 437.945 144.5 435.086 143.003C434.739 142.821 434.398 142.616 434.078 142.396C432.869 141.574 432.342 141.082 431.263 139.768L431.178 139.664C430.404 138.709 428.054 135.81 423.943 136.951C421.587 137.605 421.255 138.484 421.211 138.737C421.143 139.116 421.414 139.346 421.531 139.428C421.714 139.551 422.128 139.554 422.767 139.433C422.92 139.402 423.384 139.315 423.534 139.748C423.684 140.186 423.358 140.335 422.755 140.605L422.667 140.644C420.726 141.52 418.89 143.551 419.443 145.938C419.54 146.348 419.723 146.626 420.002 146.786C420.846 147.272 422.549 146.817 424.193 146.379C425.411 146.056 426.584 145.744 427.575 145.744V145.744ZM469.91 169.151C459.785 169.154 435.745 151.322 432.469 148.859C432.369 148.82 432.266 148.778 432.163 148.73C429.951 147.668 428.699 147.062 428.44 146.924C427.663 146.508 426.043 146.938 424.478 147.354C422.617 147.848 420.693 148.359 419.458 147.654C418.923 147.348 418.57 146.843 418.411 146.157C417.84 143.708 419.267 141.593 421.099 140.355C421.034 140.326 420.976 140.29 420.917 140.251C420.329 139.849 420.052 139.22 420.167 138.565C420.281 137.931 420.887 136.748 423.646 135.982C426.834 135.094 429.648 136.125 432.016 139.043L432.098 139.147C433.11 140.38 433.572 140.812 434.692 141.574C434.98 141.77 435.283 141.953 435.595 142.116C438.277 143.523 451.526 150.275 460.082 151.106C458.499 149.129 455.77 144.073 459.337 135.403C463.314 125.741 461.843 117.961 461.828 117.883C461.796 117.728 461.843 117.568 461.952 117.45C462.067 117.332 462.226 117.273 462.39 117.285C462.487 117.293 472.145 118.211 474.195 131.912C474.448 133.586 474.728 135.33 475.016 137.105C477.06 149.741 479.377 164.062 472.716 168.452C471.984 168.935 471.031 169.151 469.91 169.151" fill="black"/>
<path d="M476.121 148.368C475.51 142.919 474.443 137.136 473.674 131.983C471.659 118.522 462.348 117.788 462.348 117.788C462.348 117.788 463.915 125.658 459.833 135.588C457.268 141.816 458.058 146.125 459.245 148.709C464.725 147.457 470.507 147.466 476.121 148.368" fill="white"/>
<path d="M462.98 118.413C463.267 120.591 463.758 127.427 460.324 135.772C457.935 141.576 458.538 145.639 459.56 148.119C464.517 147.051 469.88 146.931 475.519 147.764C475.109 144.297 474.529 140.715 473.967 137.243C473.68 135.467 473.399 133.728 473.15 132.054C471.534 121.256 465.096 118.899 462.98 118.413ZM459.244 149.212C459.036 149.212 458.846 149.097 458.758 148.91C457.561 146.302 456.691 141.842 459.338 135.403C463.322 125.721 461.844 117.96 461.829 117.881C461.797 117.728 461.844 117.568 461.952 117.451C462.063 117.333 462.221 117.272 462.391 117.283C462.488 117.292 472.146 118.211 474.195 131.911C474.444 133.58 474.725 135.317 475.012 137.086C475.612 140.791 476.23 144.621 476.646 148.315C476.663 148.471 476.602 148.628 476.482 148.737C476.362 148.846 476.195 148.893 476.031 148.868C470.114 147.915 464.508 148.027 459.37 149.201C459.329 149.209 459.285 149.212 459.244 149.212" fill="black"/>
<path d="M439.63 122.182C441.963 121.987 447.797 120.668 447.137 114.684C446.924 112.735 445.716 111.009 445.875 109.06L446.58 100.45L433.717 99.5L432.725 111.593C430.632 123.05 439.338 122.205 439.63 122.182" fill="white"/>
<path d="M434.198 100.045L433.251 111.634C432.542 115.528 433.002 118.322 434.612 119.995C436.397 121.85 439.058 121.722 439.576 121.678H439.585C440.505 121.6 443.644 121.19 445.423 119.131C446.406 117.991 446.805 116.514 446.61 114.737C446.525 113.96 446.272 113.222 446.004 112.442C445.63 111.36 445.246 110.241 445.347 109.019L446.01 100.915L434.198 100.045ZM439.083 122.708C437.926 122.708 435.556 122.466 433.833 120.678C431.988 118.764 431.442 115.679 432.201 111.509L433.187 99.4634C433.212 99.1842 433.461 98.9807 433.754 98.9981L446.619 99.9462C446.759 99.9549 446.89 100.019 446.982 100.121C447.073 100.222 447.119 100.356 447.107 100.49L446.403 109.098C446.318 110.119 446.656 111.093 447.009 112.125C447.283 112.922 447.566 113.748 447.664 114.632C447.889 116.688 447.408 118.418 446.239 119.774C444.199 122.138 440.7 122.6 439.68 122.685C439.68 122.685 439.68 122.685 439.677 122.685L439.631 122.181L439.667 122.687C439.555 122.696 439.351 122.708 439.083 122.708" fill="black"/>
<path d="M432.371 104.08L446.181 105.097L447.12 93.6281C447.5 88.972 443.853 84.907 438.972 84.547L433.094 84.1119C431.457 83.9919 430.028 85.159 429.899 86.719L428.806 100.105C428.639 102.142 430.235 103.921 432.371 104.08Z" fill="white"/>
<path d="M446.181 105.605C446.168 105.605 446.152 105.605 446.14 105.602C445.847 105.581 445.63 105.338 445.652 105.059L446.589 93.5892C446.762 91.4719 446.061 89.4176 444.614 87.8079C443.168 86.1921 441.149 85.2161 438.929 85.0509L433.048 84.6184C431.708 84.5163 430.532 85.4804 430.425 86.7598L429.331 100.145C429.262 100.998 429.545 101.821 430.126 102.47C430.705 103.119 431.516 103.512 432.41 103.578L437.403 103.945C438.957 104.059 440.492 103.863 441.96 103.362C442.237 103.266 442.539 103.404 442.636 103.665C442.734 103.929 442.592 104.218 442.316 104.314C440.709 104.864 439.026 105.08 437.322 104.954L432.328 104.584C431.155 104.5 430.089 103.981 429.321 103.128C428.557 102.275 428.183 101.188 428.274 100.067L429.372 86.6817C429.519 84.8467 431.211 83.4652 433.13 83.6093L439.01 84.0448C441.511 84.228 443.787 85.3302 445.42 87.1472C447.052 88.9672 447.841 91.2827 447.646 93.6673L446.706 105.14C446.687 105.404 446.454 105.605 446.181 105.605" fill="black"/>
<path d="M446.467 100.35L448.908 96.8006C449.724 95.6165 450.24 94.2681 450.413 92.8619C450.413 92.8406 450.419 92.8163 450.422 92.795C450.671 90.7039 450.543 88.5793 449.922 86.5613C447.949 80.1572 442.648 78.6627 437.998 79.8041C437.986 79.8071 437.976 79.8102 437.963 79.8132C436.28 80.2242 434.496 79.8406 433.157 78.7905L431.71 77.6522C430.706 76.8638 429.179 77.1591 428.606 78.2731C427.873 79.6976 427.331 81.7399 428.446 83.8736L429.657 85.6816L440.969 86.3452C441.931 86.403 442.703 87.1092 442.805 88.0223L443.321 92.6763C443.35 92.9258 443.557 93.1207 443.821 93.145L444.962 93.2424L446.897 92.5575L446.467 100.35" fill="black"/>
<path d="M444.966 93.2404L445.775 92.5113C446.44 91.9122 447.491 91.9535 448.103 92.5999C448.526 93.0485 448.637 93.6919 448.39 94.2468L447.951 95.2297C447.58 96.0561 446.962 96.7555 446.168 97.2425L445.222 97.824L444.966 93.2404" fill="white"/>
<path d="M423.989 153.253L404.706 152.005L404.051 173.543L423.334 174.478C426.158 168.667 425.665 161.246 423.989 153.253" fill="black"/>
</svg>
