<svg width="152" height="44" viewBox="0 0 152 44" fill="none" xmlns="http://www.w3.org/2000/svg">
<g filter="url(#filter0_d_152_294)">
<path d="M17.528 18.912H15.192V18.4H23.192V18.912H20.856V29.056C20.856 31.168 20.5147 32.768 19.832 33.856C19.1493 34.9653 18.1893 35.52 16.952 35.52C16.0773 35.52 15.3627 35.2213 14.808 34.624C14.2533 34.0267 13.976 33.3547 13.976 32.608C13.976 31.8827 14.2 31.2853 14.648 30.816C15.1173 30.3467 15.64 30.112 16.216 30.112C16.8133 30.112 17.3253 30.304 17.752 30.688C18.1787 31.072 18.392 31.5627 18.392 32.16C18.392 32.7573 18.232 33.216 17.912 33.536C17.592 33.856 17.1973 34.016 16.728 34.016C15.9813 34.016 15.48 33.6853 15.224 33.024C15.16 32.8533 15.0533 32.768 14.904 32.768C14.6907 32.768 14.6053 32.8747 14.648 33.088C14.7333 33.6213 15 34.0587 15.448 34.4C15.896 34.7627 16.472 34.944 17.176 34.944C17.88 34.944 18.4347 34.656 18.84 34.08C19.2667 33.5253 19.48 32.8427 19.48 32.032C19.48 31.2427 19.2027 30.432 18.648 29.6C18.0933 28.7893 17.7627 28.1813 17.656 27.776C17.5493 27.7973 17.176 27.904 16.536 28.096C15.32 28.4587 14.264 28.64 13.368 28.64C10.6373 28.64 8.51467 27.5627 7 25.408C5.48533 23.232 4.728 20.512 4.728 17.248C4.728 13.984 5.69867 11.392 7.64 9.472C9.58133 7.53067 12.024 6.56 14.968 6.56C16.6533 6.56 18.0613 6.944 19.192 7.712C20.344 8.48 20.92 9.42933 20.92 10.56C20.92 11.2853 20.6853 11.8827 20.216 12.352C19.768 12.8213 19.2453 13.056 18.648 13.056C18.0507 13.056 17.5387 12.8747 17.112 12.512C16.6853 12.1493 16.472 11.6693 16.472 11.072C16.472 10.4747 16.632 10.0053 16.952 9.664C17.2933 9.32267 17.6987 9.152 18.168 9.152C18.9147 9.152 19.416 9.48267 19.672 10.144C19.736 10.3147 19.8427 10.4 19.992 10.4C20.2267 10.4 20.3227 10.2933 20.28 10.08C20.1733 9.33333 19.6507 8.672 18.712 8.096C17.7947 7.49867 16.6533 7.2 15.288 7.2C12.856 7.2 11.1387 8.08533 10.136 9.856C9.13333 11.6053 8.632 14.24 8.632 17.76C8.632 22.6027 9.47467 25.696 11.16 27.04C11.9067 27.616 12.8667 27.904 14.04 27.904C15.2133 27.904 16.376 27.6587 17.528 27.168V18.912ZM38.0763 26.4C36.8389 27.8933 35.1109 28.64 32.8923 28.64C30.6736 28.64 28.9456 27.8933 27.7083 26.4C26.4709 24.9067 25.8523 22.9867 25.8523 20.64C25.8523 18.2933 26.4709 16.3733 27.7083 14.88C28.9456 13.3867 30.6736 12.64 32.8923 12.64C35.1109 12.64 36.8389 13.3867 38.0763 14.88C39.3136 16.3733 39.9323 18.2933 39.9323 20.64C39.9323 22.9867 39.3136 24.9067 38.0763 26.4ZM36.7643 22.784C36.8069 22.1653 36.8283 21.4507 36.8283 20.64C36.8283 19.8293 36.8069 19.1147 36.7643 18.496C36.7216 17.8773 36.6149 17.216 36.4443 16.512C36.2949 15.808 36.0816 15.232 35.8043 14.784C35.5483 14.3147 35.1643 13.9307 34.6523 13.632C34.1616 13.3333 33.5749 13.184 32.8923 13.184C32.2096 13.184 31.6123 13.3333 31.1003 13.632C30.6096 13.9307 30.2256 14.3147 29.9483 14.784C29.6923 15.232 29.4789 15.808 29.3083 16.512C29.1589 17.216 29.0629 17.8773 29.0203 18.496C28.9776 19.1147 28.9563 19.8293 28.9563 20.64C28.9563 21.4507 28.9776 22.1653 29.0203 22.784C29.0629 23.4027 29.1589 24.064 29.3083 24.768C29.4789 25.472 29.6923 26.0587 29.9483 26.528C30.2256 26.976 30.6096 27.3493 31.1003 27.648C31.6123 27.9467 32.2096 28.096 32.8923 28.096C33.5749 28.096 34.1616 27.9467 34.6523 27.648C35.1643 27.3493 35.5483 26.976 35.8043 26.528C36.0816 26.0587 36.2949 25.472 36.4443 24.768C36.6149 24.064 36.7216 23.4027 36.7643 22.784ZM55.545 26.4C54.3077 27.8933 52.5797 28.64 50.361 28.64C48.1423 28.64 46.4143 27.8933 45.177 26.4C43.9397 24.9067 43.321 22.9867 43.321 20.64C43.321 18.2933 43.9397 16.3733 45.177 14.88C46.4143 13.3867 48.1423 12.64 50.361 12.64C52.5797 12.64 54.3077 13.3867 55.545 14.88C56.7823 16.3733 57.401 18.2933 57.401 20.64C57.401 22.9867 56.7823 24.9067 55.545 26.4ZM54.233 22.784C54.2757 22.1653 54.297 21.4507 54.297 20.64C54.297 19.8293 54.2757 19.1147 54.233 18.496C54.1903 17.8773 54.0837 17.216 53.913 16.512C53.7637 15.808 53.5503 15.232 53.273 14.784C53.017 14.3147 52.633 13.9307 52.121 13.632C51.6303 13.3333 51.0437 13.184 50.361 13.184C49.6783 13.184 49.081 13.3333 48.569 13.632C48.0783 13.9307 47.6943 14.3147 47.417 14.784C47.161 15.232 46.9477 15.808 46.777 16.512C46.6277 17.216 46.5317 17.8773 46.489 18.496C46.4463 19.1147 46.425 19.8293 46.425 20.64C46.425 21.4507 46.4463 22.1653 46.489 22.784C46.5317 23.4027 46.6277 24.064 46.777 24.768C46.9477 25.472 47.161 26.0587 47.417 26.528C47.6943 26.976 48.0783 27.3493 48.569 27.648C49.081 27.9467 49.6783 28.096 50.361 28.096C51.0437 28.096 51.6303 27.9467 52.121 27.648C52.633 27.3493 53.017 26.976 53.273 26.528C53.5503 26.0587 53.7637 25.472 53.913 24.768C54.0837 24.064 54.1903 23.4027 54.233 22.784ZM76.1178 28H71.1578V25.088H70.9658C70.5818 26.176 70.0058 27.04 69.2378 27.68C68.4911 28.32 67.5951 28.64 66.5498 28.64C64.6298 28.64 63.2004 27.8933 62.2618 26.4C61.3444 24.8853 60.8858 22.976 60.8858 20.672C60.8858 18.368 61.3658 16.4587 62.3258 14.944C63.2858 13.408 64.7578 12.64 66.7418 12.64C68.7258 12.64 70.1338 13.5147 70.9658 15.264H71.1578V6.4H68.8858V5.92H69.5578C71.2218 5.92 72.7044 5.78133 74.0058 5.504V27.52H76.1178V28ZM71.2218 20.672V19.52C71.2218 17.856 70.9018 16.448 70.2618 15.296C69.6218 14.1227 68.6191 13.536 67.2538 13.536C65.7818 13.536 64.8538 14.368 64.4698 16.032C64.1498 17.376 63.9898 18.72 63.9898 20.064C63.9898 21.408 64.0218 22.432 64.0858 23.136C64.1711 23.84 64.3098 24.576 64.5018 25.344C64.7151 26.0907 65.0564 26.6773 65.5258 27.104C66.0164 27.5307 66.5924 27.744 67.2538 27.744C67.9364 27.744 68.5338 27.5093 69.0458 27.04C69.5791 26.5493 69.9951 25.9307 70.2938 25.184C70.9124 23.6693 71.2218 22.1653 71.2218 20.672Z" fill="#0B3B2D"/>
</g>
<path d="M88 17.28L86.496 17.344C82.3147 17.5573 79.52 18.1653 78.112 19.168C76.7893 20.128 76.128 21.5573 76.128 23.456C76.128 24.7147 76.3627 25.7173 76.832 26.464C77.3013 27.1893 77.9627 27.552 78.816 27.552C79.6053 27.552 80 26.944 80 25.728V7.712H77.664V7.2H85.984V7.712H83.328V24.64C83.328 25.9627 82.9973 26.9653 82.336 27.648C81.696 28.3093 80.7893 28.64 79.616 28.64C78.464 28.64 77.4827 28.2133 76.672 27.36C75.8827 26.4853 75.488 25.248 75.488 23.648C75.488 21.728 76.0213 20.2773 77.088 19.296C78.1973 18.3147 79.52 17.6747 81.056 17.376C82.8693 17.0133 85.2373 16.7893 88.16 16.704C90.464 16.64 91.904 16.544 92.48 16.416C93.0773 16.2667 93.6533 16.1173 94.208 15.968C94.7627 15.8187 95.168 15.648 95.424 15.456C95.68 15.264 95.9787 15.0187 96.32 14.72C96.6827 14.4213 96.9493 14.0907 97.12 13.728C97.504 12.832 97.696 11.904 97.696 10.944C97.696 9.984 97.5893 9.248 97.376 8.736C97.1627 8.224 96.8747 7.968 96.512 7.968C95.808 7.968 95.456 8.53333 95.456 9.664V27.488H98.112V28H89.792V27.488H92.128V10.24C92.128 9.00267 92.4053 8.08533 92.96 7.488C93.536 6.89067 94.2933 6.592 95.232 6.592C96.1707 6.592 96.9173 6.96533 97.472 7.712C98.048 8.43733 98.336 9.44 98.336 10.72C98.336 11.9787 98.1227 13.0133 97.696 13.824C97.2907 14.6347 96.8213 15.2533 96.288 15.68C95.776 16.0853 94.976 16.416 93.888 16.672C92.8 16.9067 91.904 17.056 91.2 17.12C90.496 17.1627 89.4293 17.216 88 17.28ZM113.389 26.4C112.151 27.8933 110.423 28.64 108.205 28.64C105.986 28.64 104.258 27.8933 103.021 26.4C101.783 24.9067 101.165 22.9867 101.165 20.64C101.165 18.2933 101.783 16.3733 103.021 14.88C104.258 13.3867 105.986 12.64 108.205 12.64C110.423 12.64 112.151 13.3867 113.389 14.88C114.626 16.3733 115.245 18.2933 115.245 20.64C115.245 22.9867 114.626 24.9067 113.389 26.4ZM112.077 22.784C112.119 22.1653 112.141 21.4507 112.141 20.64C112.141 19.8293 112.119 19.1147 112.077 18.496C112.034 17.8773 111.927 17.216 111.757 16.512C111.607 15.808 111.394 15.232 111.117 14.784C110.861 14.3147 110.477 13.9307 109.965 13.632C109.474 13.3333 108.887 13.184 108.205 13.184C107.522 13.184 106.925 13.3333 106.413 13.632C105.922 13.9307 105.538 14.3147 105.261 14.784C105.005 15.232 104.791 15.808 104.621 16.512C104.471 17.216 104.375 17.8773 104.333 18.496C104.29 19.1147 104.269 19.8293 104.269 20.64C104.269 21.4507 104.29 22.1653 104.333 22.784C104.375 23.4027 104.471 24.064 104.621 24.768C104.791 25.472 105.005 26.0587 105.261 26.528C105.538 26.976 105.922 27.3493 106.413 27.648C106.925 27.9467 107.522 28.096 108.205 28.096C108.887 28.096 109.474 27.9467 109.965 27.648C110.477 27.3493 110.861 26.976 111.117 26.528C111.394 26.0587 111.607 25.472 111.757 24.768C111.927 24.064 112.034 23.4027 112.077 22.784ZM123.178 13.76V24.64C123.178 26.432 123.295 27.424 123.53 27.616C123.658 27.7227 123.828 27.776 124.042 27.776C124.575 27.776 125.087 27.4667 125.578 26.848C126.09 26.2293 126.506 25.5573 126.826 24.832L127.338 25.024C126.932 26.048 126.388 26.912 125.706 27.616C125.023 28.2987 124.234 28.64 123.338 28.64C122.079 28.64 121.258 28.2667 120.874 27.52C120.511 26.752 120.33 25.5573 120.33 23.936V13.76H118.058V13.28H118.282C120.735 13.28 122.228 11.872 122.762 9.056H123.178V13.28H127.05V13.76H123.178ZM136.301 12.64C137.901 12.64 139.234 12.9813 140.301 13.664C141.389 14.3467 141.933 15.3707 141.933 16.736C141.933 18.848 140.727 20.1493 138.317 20.64C137.101 20.8747 135.586 20.992 133.773 20.992H132.269V21.92C132.269 23.648 132.621 25.056 133.325 26.144C134.05 27.2107 135.095 27.744 136.461 27.744C137.847 27.744 138.925 27.3387 139.693 26.528C140.482 25.7173 141.037 24.672 141.357 23.392L141.933 23.456C141.591 25.0133 140.898 26.272 139.853 27.232C138.829 28.1707 137.527 28.64 135.949 28.64C133.73 28.64 132.045 27.9147 130.893 26.464C129.741 24.992 129.165 23.0507 129.165 20.64C129.165 18.2293 129.783 16.2987 131.021 14.848C132.258 13.376 134.018 12.64 136.301 12.64ZM132.269 20.416H133.389C135.117 20.416 136.322 20.2453 137.005 19.904C137.709 19.5627 138.189 19.1467 138.445 18.656C138.701 18.144 138.829 17.4293 138.829 16.512C138.829 15.5947 138.594 14.816 138.125 14.176C137.677 13.5147 136.983 13.184 136.045 13.184C135.106 13.184 134.338 13.5253 133.741 14.208C133.165 14.8693 132.77 15.648 132.557 16.544C132.365 17.44 132.269 18.432 132.269 19.52V20.416ZM149.396 27.52H151.508V28H144.436V27.52H146.548V6.4H144.276V5.92H144.948C146.612 5.92 148.095 5.78133 149.396 5.504V27.52Z" fill="#FFB901"/>
<defs>
<filter id="filter0_d_152_294" x="0.727997" y="5.50403" width="79.3898" height="38.016" filterUnits="userSpaceOnUse" color-interpolation-filters="sRGB">
<feFlood flood-opacity="0" result="BackgroundImageFix"/>
<feColorMatrix in="SourceAlpha" type="matrix" values="0 0 0 0 0 0 0 0 0 0 0 0 0 0 0 0 0 0 127 0" result="hardAlpha"/>
<feOffset dy="4"/>
<feGaussianBlur stdDeviation="2"/>
<feComposite in2="hardAlpha" operator="out"/>
<feColorMatrix type="matrix" values="0 0 0 0 0 0 0 0 0 0 0 0 0 0 0 0 0 0 0.25 0"/>
<feBlend mode="normal" in2="BackgroundImageFix" result="effect1_dropShadow_152_294"/>
<feBlend mode="normal" in="SourceGraphic" in2="effect1_dropShadow_152_294" result="shape"/>
</filter>
</defs>
</svg>
