<svg width="33" height="33" viewBox="0 0 33 33" fill="none" xmlns="http://www.w3.org/2000/svg">
<path d="M0.646881 1.07043H31.6469V32.0704H0.646881V1.07043Z" stroke="#202020"/>
<path d="M24.9607 24.3731C24.5763 24.5727 23.9356 24.7723 23.2949 24.7723C22.3979 24.7723 21.7572 24.2733 21.7572 23.3751V18.7841H25.217V15.7899H21.7572V12.7958V11.5981H16.3754V12.7958V15.6901L16.3754 23.4749C16.3754 26.469 18.6819 27.9661 22.526 27.9661C23.9356 27.9661 25.3451 27.7664 26.2421 27.2674L24.9607 24.3731Z" fill="#202020"/>
<path d="M6.38061 9.73518C6.76502 9.53557 7.40571 9.33596 8.04641 9.33596C8.94338 9.33596 9.58407 9.83498 9.58407 10.7332V15.3242H6.12433V18.3183H9.58407V21.3125V22.5101H14.9659V21.3125V18.4182V10.6334C14.9659 7.63929 12.6594 6.14222 8.81524 6.14222C7.40572 6.14222 5.99619 6.34183 5.09922 6.84085L6.38061 9.73518Z" fill="#202020"/>
</svg>
