<svg width="78" height="15" viewBox="0 0 78 15" fill="none" xmlns="http://www.w3.org/2000/svg">
<rect x="39.9218" y="15" width="18.5245" height="15" transform="rotate(-180 39.9218 15)" fill="#D9D9D9"/>
<path d="M36.301 11.8987C36.0484 12.0065 35.6274 12.1142 35.2064 12.1142C34.617 12.1142 34.196 11.8449 34.196 11.36V8.88193H36.4694V7.26578H34.196V5.64963V5.00317H30.6595V5.64963V7.21191V11.4139C30.6595 13.0301 32.1751 13.8381 34.7012 13.8381C35.6274 13.8381 36.5536 13.7304 37.143 13.461L36.301 11.8987Z" fill="black"/>
<path d="M24.0917 3.99749C24.3443 3.88975 24.7653 3.78201 25.1863 3.78201C25.7758 3.78201 26.1968 4.05137 26.1968 4.53621V7.01431H23.9233V8.63046H26.1968V10.2466V10.8931H29.7333V10.2466V8.68433V4.48234C29.7333 2.86619 28.2176 2.05812 25.6916 2.05812C24.7653 2.05812 23.8391 2.16586 23.2497 2.43522L24.0917 3.99749Z" fill="black"/>
<path d="M47.263 7.59853V11.5597H44.3814V8.0063C44.3814 7.01601 43.9011 6.60824 43.0778 6.60824C42.1859 6.60824 41.4312 7.07426 41.4312 8.23931V11.5597H38.5496V2.1228H41.4312V5.32669C42.0486 4.80241 42.9406 4.5694 43.9011 4.5694C45.8222 4.5694 47.263 5.50144 47.263 7.59853Z" fill="black"/>
<path d="M48.1549 8.58892C48.1549 6.49183 50.076 5.03552 52.7517 5.03552C55.4275 5.03552 57.3485 6.49183 57.3485 8.58892C57.3485 10.686 55.4275 12.1423 52.7517 12.1423C50.1446 12.1423 48.1549 10.686 48.1549 8.58892ZM54.467 8.58892C54.467 7.54038 53.7123 6.95785 52.7517 6.95785C51.7912 6.95785 51.0365 7.54038 51.0365 8.58892C51.0365 9.63746 51.7912 10.22 52.7517 10.22C53.7123 10.22 54.467 9.63746 54.467 8.58892Z" fill="black"/>
<path d="M13.1641 8.58892C13.1641 6.49183 15.0852 5.03552 17.7609 5.03552C20.4367 5.03552 22.3578 6.49183 22.3578 8.58892C22.3578 10.686 20.4367 12.1423 17.7609 12.1423C15.1538 12.1423 13.1641 10.686 13.1641 8.58892ZM19.4762 8.58892C19.4762 7.54038 18.7215 6.95785 17.7609 6.95785C16.8004 6.95785 16.0457 7.54038 16.0457 8.58892C16.0457 9.63746 16.8004 10.22 17.7609 10.22C18.7215 10.22 19.4762 9.63746 19.4762 8.58892Z" fill="black"/>
<path d="M70.6588 9.69572L72.1682 11.0355C71.4135 11.7928 70.2471 12.1423 68.7377 12.1423C65.8561 12.1423 63.935 10.6278 63.935 8.58892C63.935 6.49183 65.8561 5.03552 68.4633 5.03552C70.796 5.03552 72.7857 6.31708 72.7857 8.53067L66.9539 9.46271C67.2969 10.0452 67.9144 10.2782 68.8063 10.2782C69.561 10.2782 70.1099 10.1035 70.6588 9.69572ZM66.748 8.23941L70.0413 7.71513C69.8354 7.13261 69.2866 6.7831 68.4633 6.7831C67.5027 6.72484 66.8166 7.24911 66.748 8.23941Z" fill="black"/>
<path d="M0.128326 10.7843L1.4515 8.1104C2.66442 8.77887 4.42866 9.16086 5.97237 9.16086C7.51608 9.16086 8.06741 8.87437 8.06741 8.39689C8.06741 6.86896 0.348853 8.58788 0.348853 4.09958C0.348853 1.99867 2.66442 0.375244 6.74423 0.375244C8.61874 0.375244 10.6035 0.757227 11.9267 1.3302L10.6035 4.00408C9.28033 3.33561 7.95715 3.14462 6.8545 3.14462C5.31078 3.14462 4.75946 3.5266 4.75946 3.90859C4.75946 5.43652 12.478 3.81309 12.478 8.30139C12.478 10.4023 10.2727 12.0257 5.97237 12.0257C3.76707 11.9302 1.45151 11.4528 0.128326 10.7843Z" fill="black"/>
<path d="M63.0431 9.57911C62.8373 9.69562 62.4943 9.81212 62.1512 9.81212C61.671 9.81212 61.3279 9.52086 61.3279 8.99659V6.31698H63.1804V4.5694H61.3279V2.82183V2.1228H58.4463V2.82183V4.51115V9.05484C58.4463 10.8024 59.6813 11.6762 61.7396 11.6762C62.4943 11.6762 63.249 11.5597 63.7292 11.2684L63.0431 9.57911Z" fill="black"/>
<path d="M73.5404 9.63736V2.70532H76.3534V9.52086C76.3534 10.0451 76.6964 10.2781 77.2453 10.2781C77.4511 10.2781 77.7255 10.2199 77.8628 10.1616L78 11.9675C77.5197 12.084 77.1081 12.1422 76.6278 12.1422C74.7067 12.1422 73.5404 11.2684 73.5404 9.63736Z" fill="black"/>
</svg>
